<?xml version="1.0" standalone="no"?>
<!DOCTYPE svg PUBLIC "-//W3C//DTD SVG 1.1//EN" "http://www.w3.org/Graphics/SVG/1.1/DTD/svg11.dtd" >
<svg xmlns="http://www.w3.org/2000/svg" xmlns:xlink="http://www.w3.org/1999/xlink" version="1.1">
<metadata>
Created by FontForge 20170731 at Mon Apr 12 19:33:30 1999
 By Aleksey,,,
Copyright (c) VTC Vigilante Typeface Corporation, 1999. All rights reserved. Distroware! Spread like the Plague!
</metadata>
<defs>
<font id="VTCGoblinHand" horiz-adv-x="551" >
  <font-face 
    font-family="VTCGoblinHand"
    font-weight="400"
    font-style="oblique"
    font-stretch="normal"
    units-per-em="1000"
    panose-1="2 0 9 4 6 0 0 2 0 4"
    ascent="800"
    descent="-200"
    x-height="681"
    cap-height="716.5"
    bbox="-63.8947 -181.2 1119.56 948"
    underline-thickness="50"
    underline-position="-175"
    unicode-range="U+0020-00C6"
  />
<missing-glyph horiz-adv-x="500" 
 />
    <glyph glyph-name=".notdef" horiz-adv-x="500" 
 />
    <glyph glyph-name=".null" horiz-adv-x="0" 
 />
    <glyph glyph-name="nonmarkingreturn" horiz-adv-x="333" 
 />
    <glyph glyph-name="space" unicode=" " horiz-adv-x="318" 
 />
    <glyph glyph-name="exclam" unicode="!" horiz-adv-x="268" 
d="M194 854v14q-8 0 -30 -5.5t-47.5 -12t-47 -13t-27.5 -7.5l2 -13l7 -7t8 -12q2 -8 5.5 -25.5t5.5 -34.5l34 -516q3 -24 0.5 -40t2.5 -16q6 0 22 9t33 23q10 7 8 13.5t-1 23.5l16 503q1 6 1 12v13v25q0 14 0.5 22.5t1.5 15.5q2 7 4 17.5zM198 50q0 7 -13 17.5t-23 17.5
t-17 17t-11 10q-5 0 -13.5 -12t-18.5 -20q-10 -7 -21 -14.5t-11 -13.5q0 -5 11 -11.5t21 -14.5l20 -22t14 -11q2 0 10.5 9.5t16.5 16.5q10 10 22.5 17.5t12.5 13.5z" />
    <glyph glyph-name="quotedbl" unicode="&#x22;" horiz-adv-x="310" 
d="M137 938l-87 -47q0 -11 4.5 -37t10.5 -55t12.5 -55t10.5 -38q3 -9 7 -3.5t7 25.5q3 21 9.5 54t12.5 65t10.5 57.5t2.5 33.5zM239 938l-12 -6.5t-27 -14.5t-28 -15t-14 -8q-2 -8 0 -29t5.5 -48.5t9.5 -58t12 -57.5q1 -4 1.5 -5.5l0.5 -1.5q5 0 7.5 8t2.5 16
q9 41 17.5 80.5t15 70.5t9.5 50t0 19z" />
    <glyph glyph-name="numbersign" unicode="#" horiz-adv-x="667" 
d="M630 478q-51 0 -87.5 0.5t-68.5 -0.5l12 193l-38 2l-15 -194q-42 -3 -85 -3.5t-82 -1.5l15 197l-40 2l-15 -203q-30 -2 -75 -4.5t-85 -4.5v-87q49 3 82.5 6.5t68.5 5.5l-7 -123q-36 -7 -73 -10t-84 -13l-17 -84q51 8 91 13t75 10l-14 -169h41q0 1 1.5 19t4 46t5 53.5
t4 43t1.5 13.5q43 5 84.5 8.5t80.5 4.5l-15 -188h39l17 193q32 2 69.5 4t73.5 2l8 77q-47 4 -80.5 2t-66.5 -2l11 116q33 1 69 1.5t78 0.5zM426 400l-10 -117q-35 -5 -80.5 -6.5t-88.5 -7.5l11 121q39 4 84 5.5t84 4.5z" />
    <glyph glyph-name="dollar" unicode="$" horiz-adv-x="482" 
d="M402 210q0 35 -4.5 70t-15.5 68q-8 26 -27 40.5t-37 24.5q-6 2 -19.5 9.5t-34.5 19.5v248q24 -4 51 -15t64 -34l11 6l-31 91q-52 7 -95 0v36h-30v-43q-38 -11 -65.5 -32.5t-46 -49t-27.5 -58.5t-9 -62q0 -42 13 -86.5t45 -76.5q12 -14 36.5 -26t53.5 -32v-267
q-36 6 -71.5 23t-55.5 38h-3h-9l7 -84q23 -10 61.5 -17t70.5 -7v-61h30l-1 65q18 5 42 21t45.5 42.5t36.5 63.5t15 85zM234 462q-17 13 -32.5 28t-28.5 32.5t-20.5 38t-7.5 43.5q0 20 7.5 35.5t17 26t19.5 15.5t16 5q8 0 14.5 2t14.5 2v-228zM342 132q0 -13 -4.5 -28
t-12.5 -28t-20.5 -23t-28.5 -12q-4 0 -6.5 -0.5t-6.5 -0.5l1 248q32 -26 55 -62t23 -94z" />
    <glyph glyph-name="percent" unicode="%" horiz-adv-x="672" 
d="M626 554l-31 33q-2 -1 -17.5 -5t-40.5 -9.5t-46 -7.5l-75 -8q-7 -1 -24.5 1t-32.5 -6q-14 -8 -22.5 -22t-14.5 -20q-20 22 -44.5 40t-56.5 18q-23 0 -53 -19t-56.5 -47.5t-45 -60.5t-18.5 -58q0 -21 14 -43t35 -40t45 -29.5t44 -11.5q17 0 45 14.5t55 39t46.5 57
t19.5 68.5q0 29 -16 52q18 0 38.5 2.5t39.5 6t35 6.5t25 5q18 3 27.5 7.5t7.5 2.5q-48 -44 -99 -107.5t-109 -135.5q-58 -74 -105.5 -138t-93.5 -133l23 -14q27 35 50.5 67.5t48 65.5t52 67t60.5 72q40 45 74 83.5t67.5 73t69.5 67t79 66.5zM622 162q0 21 -10.5 44
t-28.5 42.5t-43 32t-54 12.5q-34 0 -65.5 -21t-56 -49t-39.5 -57t-15 -45q0 -27 12.5 -51t31.5 -41t42 -27t43 -10q33 0 65.5 19.5t58.5 46.5t42.5 56t16.5 48zM289 362q0 -15 -9 -25.5t-28 -10.5q-29 0 -54 14t-44 34.5t-29.5 42.5t-10.5 37q0 21 3.5 33t28.5 12
q33 0 59 -17.5t45 -40.5t29 -46t10 -33zM553 96q0 -19 -10 -34t-29 -15q-29 0 -54 15.5t-43 37t-28.5 45t-10.5 39.5q0 6 3 14.5t8 16.5t11.5 13.5t13.5 5.5q34 0 60 -17.5t43.5 -40.5t26.5 -46t9 -34z" />
    <glyph glyph-name="ampersand" unicode="&#x26;" horiz-adv-x="638" 
d="M618 385q5 -8 2 -20.5t-8 -20.5q-5 -9 -16.5 -26.5t-25.5 -35.5q-12 -15 -25.5 -27.5t-24.5 -17.5q-2 -1 -14 -2t-27 -1.5t-30 -0.5h-24q-15 -11 -20.5 -15.5t-12.5 -14.5q-8 -9 -13 -15.5t-9.5 -13t-8.5 -13.5t-10 -17q9 -8 27.5 -22.5t40 -28.5t43.5 -24.5t37 -10.5
q19 0 41 22l6 -7q-12 -18 -26 -34t-26.5 -27.5t-22.5 -18.5t-13 -7q-8 0 -28.5 9t-44.5 22t-47.5 27.5t-37.5 26.5q-12 -17 -27.5 -32t-30 -26.5t-25.5 -18t-15 -6.5q-5 0 -15 1t-22.5 3t-26 6.5t-23.5 12.5q-4 3 -9 12t-9 21t-6.5 25.5t-2.5 25.5q0 4 4.5 11.5t11 15.5
l13 16t10.5 13q7 7 11.5 12t10 10.5t13 12.5t20.5 18q-20 29 -31 61t-11 65q0 3 14.5 24t35 46t42.5 45t38 20q25 0 41.5 -10.5t25.5 -24t12.5 -27t3.5 -19.5q0 -15 -9.5 -33t-24.5 -37t-32 -36.5t-32 -31.5q8 -13 17.5 -24t20.5 -23q13 -14 23.5 -24.5t24.5 -22.5q1 1 4 7
t8 15.5t8 15.5q8 16 13 25t12 18l-92 -7q-5 1 -2 7t10.5 14t16.5 15.5t16 12.5q9 5 19.5 9.5t16.5 4.5l162 20q25 3 38.5 8t23.5 14q6 4 6 17q0 12 -3 26q0 1 2.5 4t6 5t7 3t4.5 -1zM210 365q0 -26 10.5 -52.5t27.5 -54.5q20 20 30 37.5t10 28.5q0 17 -5.5 34.5t-14 31
t-19.5 22t-22 8.5q-17 0 -17 -55zM291 79q-8 6 -18.5 16.5t-21 21.5t-19.5 21t-13 15q-6 8 -13.5 17t-14.5 21q-12 -14 -16 -34t-4 -31q0 -15 5 -26t14 -24q6 -8 19 -15t20 -7q5 0 16 1.5t20 5.5q11 3 16 7t10 11z" />
    <glyph glyph-name="quotesingle" unicode="'" horiz-adv-x="233" 
d="M164 948q-2 0 -18.5 -3.5t-35.5 -8.5t-34.5 -9.5t-15.5 -7.5q0 -10 5.5 -44t13 -73t15.5 -73.5t13 -46.5q3 -10 7 -9t8 9t8 19.5t6 22.5q8 42 14.5 82t10 71.5t4.5 51t-1 19.5z" />
    <glyph glyph-name="parenleft" unicode="(" horiz-adv-x="203" 
d="M195 702q-27 -8 -45 -36.5t-28 -67.5t-14 -82.5t-4 -79.5q0 -15 0.5 -27.5t1.5 -22.5q4 -50 11.5 -93.5t19 -86t27 -86t35.5 -93.5l-103 -31h-8q-26 55 -41.5 107.5t-23.5 102t-10.5 94t-2.5 82.5q0 43 11.5 93.5t34 99t54.5 91t73 69.5z" />
    <glyph glyph-name="parenright" unicode=")" horiz-adv-x="203" 
d="M195 345q0 -42 -11.5 -92.5t-33.5 -99.5t-54 -91t-73 -68l-12 31q27 7 44 36t27.5 68t14.5 82.5t4 79.5q0 15 -0.5 27.5t-1.5 22.5q-5 50 -13 93.5t-19.5 86t-26.5 86t-34 93.5l103 33h8q25 -57 40.5 -110t23.5 -102t11 -93t3 -83z" />
    <glyph glyph-name="asterisk" unicode="*" horiz-adv-x="331" 
d="M327 652q-2 1 -12.5 8t-26.5 19t-26 22q-8 6 -12.5 10t-7.5 7t-5 6.5t-5 9.5q5 5 10.5 11.5t15.5 14.5q12 10 27.5 22t25.5 19t12 8l-4 9q-2 -1 -12.5 -7t-28.5 -14.5t-34 -13.5q-17 -8 -24 -9t-15 -1q-7 11 -11.5 22t-9.5 30q-2 12 -3.5 25.5t-3 25.5t-2.5 20.5l-1 8.5
l-9 1q0 -2 -1.5 -14l-4 -32t-3.5 -34q-5 -24 -8.5 -35t-11.5 -18q-11 1 -30 9q-14 3 -32 11t-29 13.5l-13 6.5l-7 -7q1 -1 10.5 -7t24 -16.5t25.5 -19.5q10 -8 18.5 -16.5t12.5 -14.5q-7 -8 -12 -15t-19 -17q-10 -11 -25.5 -22.5t-26 -18.5t-12.5 -8l3 -9l8 4.5t19.5 10
t24 10.5t23.5 8q23 8 31 9t16 1q5 -8 8.5 -19t6.5 -24q3 -11 4 -25t2 -26.5t1.5 -21.5l0.5 -9h9l0.5 8.5t2 20.5t3 26t3.5 26q4 11 6.5 18t4.5 11.5t4.5 7.5t5.5 7q10 0 17.5 -1t20.5 -8q15 -3 34 -11t30 -13.5l13 -6.5z" />
    <glyph glyph-name="plus" unicode="+" horiz-adv-x="630" 
d="M371 560q-6 0 -17 -5.5t-26.5 -14t-33.5 -19.5t-37 -22l3 -18.5t7 -45.5t7.5 -58.5t4.5 -58.5q0 -5 10.5 -3.5t23 6.5t23 11.5t10.5 10.5q0 29 4 62.5t8.5 64.5t8.5 55t4 35zM559 339q-24 3 -50 6t-48 5t-38 3t-21 1q-4 0 -11.5 -12.5t-13.5 -27t-8 -27t4 -12.5
q28 0 60 -0.5t80 -0.5q4 0 12 10t15.5 22.5t13 22.5zM251 335q-9 3 -17 5t-19 2t-27.5 -1t-39.5 -6q-6 -2 -20 -12.5t-26 -23t-19 -22.5t1 -10h36h34h35h40q6 0 11.5 10t9 22.5t4.5 23.5t-3 12zM342 298q-12 -7 -28 -18t-34 -19q-6 -3 -5 -24t5 -50.5t7 -61.5t2 -58
l10.5 2.5t23.5 8t23 12.5t8 16q-4 37 -3.5 72.5t0.5 63.5q0 29 -1.5 45t-7.5 11z" />
    <glyph glyph-name="comma" unicode="," horiz-adv-x="286" 
d="M262 118q-3 3 -20 2.5t-40 -5.5q-16 -1 -32.5 -1.5t-27.5 -0.5q-2 -5 -14.5 -28t-29.5 -54q-10 -18 -21.5 -38t-22 -38t-19.5 -33t-15 -23q-16 -22 -27 -34t-5 -17q4 -3 8.5 -2.5t9 3.5t9 7t9.5 6l229 232q22 11 9 24z" />
    <glyph glyph-name="hyphen" unicode="-" horiz-adv-x="535" 
d="M516 383q-8 0 -11.5 -0.5t-5.5 -1t-5.5 -1t-11.5 -1.5q-12 -2 -28.5 -5.5t-39.5 -3.5q-31 0 -66 1t-67.5 3t-59 4t-39.5 5q-8 0 -16 3t-19 -3q-14 -11 -29 -25t-27.5 -27t-21 -22l-8.5 -9q0 -7 9 -7q11 0 22 9t28 17q2 5 30 5q18 0 43 -1t56 -2t65 -2t70 -1h66h19t12 -1
l7.5 10.5t15 23t12.5 22.5t0 10z" />
    <glyph glyph-name="period" unicode="." horiz-adv-x="275" 
d="M233 72q0 5 -5.5 11.5t-13.5 13.5t-17 13.5t-16 11.5q-14 11 -24 25t-15 14q-4 0 -9 -5t-11 -12.5t-13 -15t-14 -13.5q-14 -10 -30 -21t-16 -20q0 -6 16 -16t30 -21q14 -15 29 -31t20 -16q4 0 15.5 13.5t22.5 24.5q15 14 33 24.5t18 19.5z" />
    <glyph glyph-name="slash" unicode="/" horiz-adv-x="485" 
d="M410 739l-66 17l-32 -10l-224 -723l72 -13l32 9z" />
    <glyph glyph-name="zero" unicode="0" 
d="M515 310q0 -130 -67 -227q-74 -102 -183 -102q-142 0 -196 113q-32 72 -32 216q0 138 63 230q69 102 186 102q104 0 161 -69q68 -83 68 -263zM427 323q0 115 -20 181v-1q-19 55 -50.5 76t-79.5 21t-81.5 -23.5t-50.5 -81.5q-19 -64 -19 -196q0 -114 21 -178
q17 -55 46.5 -76.5t77.5 -21.5q50 0 85 23t52 82q10 32 14.5 81.5t4.5 113.5z" />
    <glyph glyph-name="one" unicode="1" 
d="M457 3q-3 2 -6 6t-6 9q-38 13 -99 13h-8q-4 0 -9 -1q-1 -7 -2 18t-2 70.5t-1.5 108t-0.5 130.5q0 69 1.5 139t4.5 131q0 18 -11 18q-12 -5 -40.5 -11.5t-61.5 -14.5t-65 -17.5t-51 -18.5q0 -9 4 -17t18 -8h9h4q4 0 6 1q5 0 15.5 1t24.5 4q22 3 36 4.5t22 2.5v-168v-105
v-60t-0.5 -31.5t-0.5 -20.5q0 -8 -1 -24.5t-2 -46.5t-2 -85q-15 -1 -27.5 -2t-22.5 -2q-6 -1 -12 -1h-10q-33 -14 -60 -21q-7 -2 -3 -8q5 -7 26 -7q8 0 26.5 1.5t47.5 3.5q60 3 83 3t79 -3q55 -3 67 -3q22 0 29 4z" />
    <glyph glyph-name="two" unicode="2" horiz-adv-x="546" 
d="M463 78q-2 5 -4.5 17t3.5 23q5 9 17.5 14.5t20.5 6.5q3 -8 5 -15t3.5 -15t2 -20t0.5 -30v-59q0 -8 -5.5 -17.5t-13.5 -14t-16 -0.5t-13 22q-24 6 -54.5 8t-68.5 2q-26 0 -61.5 -1t-80.5 -3t-72 -3t-35 -1q-83 0 -83 22q0 4 -2 9t-2 11t3.5 12.5t15.5 14.5q3 3 12.5 7.5
t21.5 10t23.5 11t19.5 10.5q19 15 37.5 25t38.5 25q10 8 19 15t19 15q45 38 79 70.5t58 61.5q66 81 66 142q4 35 -6 60t-30 40.5t-49 21.5t-62 3q-70 0 -128 -50q-14 -14 -26.5 -28t-24.5 -28q-13 -14 -25.5 -28t-25.5 -28q-2 -2 -4 -2q-11 0 -11 14q0 48 80 125
q98 92 201 92q82 0 139 -45q58 -43 58 -119q0 -78 -80 -173q-34 -38 -78.5 -78t-101.5 -83q-35 -26 -77 -54t-90 -59q58 0 105 1.5t84 3.5q60 6 109 15t89 23z" />
    <glyph glyph-name="three" unicode="3" 
d="M508 176q0 -93 -78 -148q-34 -25 -75 -36t-90 -11q-81 0 -166 35q-88 39 -88 83q0 6 7 5l18 -6q8 -4 18 -5q107 -74 199 -74q69 0 121 40q51 39 51 98q0 70 -57 105q-50 30 -128 30q-19 -3 -42 -1.5t-36.5 7t-10.5 16t35 25.5q26 2 52 1.5t52 5.5l39 12q38 31 55.5 60
t17.5 64q0 48 -34 76t-98 28q-93 0 -143 -46q-56 -47 -72 -47q-14 0 -14 12q0 27 81 80q90 57 166 57q83 0 130 -35q55 -43 55 -116q-3 -23 -12.5 -44t-25.5 -43q-11 -14 -20 -32.5t-31 -36.5q63 -17 93.5 -58t30.5 -101z" />
    <glyph glyph-name="four" unicode="4" 
d="M427 217l35 8q5 5 6.5 13.5t2.5 15.5q3 22 11 30.5t16.5 7t14 -11t3.5 -22.5q-4 -29 -3 -40t1 -18q0 -14 -1.5 -28.5t1.5 -38.5q-5 -17 -13.5 -21t-16 0.5t-11.5 14.5t1 21v9h-99v-125h10q8 0 13 -1q10 -1 20.5 -1.5t21.5 -2.5h-1q47 -3 47 -25q0 -12 -36 -12
q-9 0 -25 1.5t-39 3.5q-45 3 -61 3q-17 0 -63 -3q-24 -2 -40 -3.5t-26 -1.5q-20 0 -26 2q-13 1 -13 11q0 22 44 25q20 2 37 3.5t33 1.5h17l2 123q-46 -3 -100 -4.5t-106 -1.5q-39 0 -60 2.5t-22 8.5v2q0 6 19 31q25 39 48 66q23 33 45.5 66t47.5 66q54 75 129 174
q64 91 77 90q16 0 16 -42q-5 -26 -5.5 -57.5t-3.5 -58.5v-282zM86 218l206 2v279z" />
    <glyph glyph-name="five" unicode="5" 
d="M394 625l115 -1q2 -16 -4.5 -40t-19.5 -35q-20 -17 -27.5 -20.5t-12.5 -0.5q-3 2 -7 5.5t-11 6.5t-18.5 5t-30.5 1h-198l-56 -152q35 10 75.5 14.5t78.5 4.5q81 0 145 -44q75 -51 75 -137q0 -51 -14 -99.5t-54 -86.5q-39 -38 -93.5 -52.5t-112.5 -14.5q-16 0 -33.5 2
t-37.5 6q-55 14 -87.5 53t-32.5 88q0 16 3 31t8 27t11 19.5t13 7.5q16 0 16 -16q-1 -5 -1 -13v-12q0 -49 53 -93q24 -20 47.5 -31t46.5 -15q10 -3 22 -4t23 -1q37 0 67 12.5t51 34t32.5 50.5t11.5 63q0 69 -63 108q-53 34 -122 34q-54 0 -96 -13h1l-37 -12
q-12 -4 -23.5 -7.5t-23.5 -8.5q-13 0 -13 11q0 14 7 29l104 293q1 3 5 3h218z" />
    <glyph glyph-name="six" unicode="6" 
d="M520 227q0 -105 -74 -176h1q-70 -70 -187 -70q-105 0 -169 81q-58 76 -58 181q0 125 73 243q31 49 67.5 91t81.5 77q79 65 118 65q4 0 5 -3t-1 -5q-7 -8 -13.5 -15t-13.5 -14l-22 -21q-81 -70 -124 -131q-32 -46 -50 -88.5t-21 -84.5q34 45 77.5 67.5t89.5 22.5
q45 0 82 -14t69 -44q69 -66 69 -162zM427 209q0 81 -37 131q-44 59 -119 59q-71 0 -111 -63q-17 -29 -25.5 -62t-8.5 -75q0 -78 40 -133q40 -57 109 -57t113 62q39 57 39 138z" />
    <glyph glyph-name="seven" unicode="7" 
d="M344 632l200 8q-6 -11 -13.5 -29t-14.5 -26q-88 -114 -153 -268q-73 -166 -75 -287h20q46 0 74.5 -5.5t28.5 -24.5q0 -10 -32 -10q-9 0 -26 1.5t-41 3.5q-48 3 -68 3q-23 0 -75 -3q-26 -2 -44 -3.5t-27 -1.5q-31 0 -31 10q0 9 12 16.5t37 9.5h-1q21 2 38 4t31 3
q25 76 52 148t59.5 140t72.5 134t91 131q-75 0 -124 -0.5t-89 -5.5q-39 -5 -76 -12t-72 -17q-5 -6 -9.5 -13.5t-8 -12.5t-7 -6t-6.5 7q-4 8 -7 38q1 4 1 12t1 13v-1q0 10 -0.5 21.5t-1.5 22.5q1 3 10 3q7 0 14 -0.5t12 -1l5 -0.5q1 0 -5 2q43 -3 102 -2t146 -1z" />
    <glyph glyph-name="eight" unicode="8" 
d="M520 178q0 -82 -86 -145q-82 -55 -178 -55q-95 0 -162 46q-74 53 -74 140q0 64 57 111q40 31 109 55q-26 14 -45 26t-30 23h1q-38 36 -38 86q0 19 1 22q9 65 72 112q62 44 136 44t129 -40q57 -39 57 -103q-1 -3 -1 -8v-5q-5 -44 -45 -83q-24 -21 -74 -50
q85 -28 128 -70.5t43 -105.5zM457 143q0 65 -87 110q-14 8 -49 22.5t-95 36.5q-29 -11 -50.5 -20.5t-33.5 -20.5q-39 -30 -39 -71q0 -64 46 -110q48 -48 115 -60q5 -1 8.5 -1.5t5.5 -0.5h18q65 0 110 30q51 31 51 85zM396 494l-0.5 1t-0.5 2v-1q-7 21 -23 38t-37.5 29.5
t-47.5 19.5t-53 7q-51 -6 -77 -28t-26 -67q0 -40 67 -76q13 -7 39.5 -19.5t74.5 -30.5q21 10 36 20.5t26 20.5q27 25 27 56q0 11 -5 28z" />
    <glyph glyph-name="nine" unicode="9" 
d="M516 385q0 -88 -28.5 -164.5t-76.5 -142.5q-33 -45 -71.5 -79.5t-81.5 -62.5l-38 -14q-10 -4 -19.5 -7.5t-18.5 -7.5q-7 -1 -7 5q0 10 34 41q45 42 75.5 75t49.5 56q65 85 80 177q-33 -42 -78 -64t-94 -22q-81 0 -142 59q-67 61 -67 155q0 108 72 183q74 74 176 74
q99 0 164 -64q35 -37 53 -85.5t18 -111.5zM423 410q0 81 -37 139q-41 63 -110 63q-72 0 -112 -61q-43 -59 -43 -143q0 -78 39 -130q44 -56 118 -56q71 0 110 58q35 53 35 130z" />
    <glyph glyph-name="colon" unicode=":" horiz-adv-x="170" 
d="M157 311q0 7 -9 17.5t-20 21.5q-14 16 -23 26.5t-16 10.5q-1 0 -12.5 -11.5t-23.5 -20.5q-14 -11 -27 -18t-13 -14q0 -4 12 -13t23 -20q12 -17 23.5 -31.5t16.5 -14.5q3 0 12.5 12.5t23.5 25.5q13 11 23 16.5t10 12.5zM154 74q0 6 -12.5 14.5t-21.5 19.5
q-11 12 -21.5 24.5t-14.5 12.5q-5 0 -15 -13t-24 -27q-11 -8 -23.5 -16t-12.5 -13t13 -15t24 -25q13 -16 23 -27.5t15 -11.5q4 0 14.5 13.5t21.5 24.5q12 15 23 24.5t11 14.5z" />
    <glyph glyph-name="semicolon" unicode=";" horiz-adv-x="244" 
d="M231 317q0 4 -9 12.5t-21 21.5q-13 16 -24.5 32.5t-15.5 16.5q-5 0 -18.5 -13t-25.5 -24q-8 -5 -17.5 -11t-17.5 -11t-13.5 -9t-5.5 -6q0 -3 6 -6.5t15 -8t18.5 -11t16.5 -13.5q14 -14 20 -26t8 -12q5 0 18 11.5t30 22.5q13 11 24.5 20t11.5 14zM215 92q-3 3 -18 3
q-11 0 -24.5 -1.5t-28 -3t-27.5 -3t-23 -1.5q-2 -2 -10 -16.5t-19 -35t-24 -45t-25.5 -47.5t-23.5 -42t-17 -28q-17 -22 -30 -34.5t-7 -15.5q4 -4 9 -3t11 4t11 6.5t9 5.5l228 232q22 13 9 25z" />
    <glyph glyph-name="less" unicode="&#x3c;" horiz-adv-x="346" 
d="M336 718l-46 32l-280 -390l225 -347l13 -7l84 60l-235 326z" />
    <glyph glyph-name="equal" unicode="=" horiz-adv-x="425" 
d="M419 418q-17 0 -28.5 -8.5t-25.5 -8.5q-18 0 -43 1t-51 1.5t-50.5 1.5t-42.5 1q-8 0 -11 3t-4.5 5t-3 2.5t-7.5 -3.5q-11 -8 -29.5 -27.5t-36.5 -40.5t-31.5 -37t-13.5 -17q-3 -5 -0.5 -8.5t7.5 -3.5t16 7.5t44 21.5q21 9 63 4.5t111 -4.5q18 0 29 -1t18 -2.5t11 -2.5
t8 -1q0 -1 6 8t15 22t19 28.5t18 28.5t12 21.5t1 8.5zM395 242q-4 4 -13.5 5t-22 -0.5t-28.5 -3t-33 -1.5q-35 0 -74 2.5t-66 2.5q-11 5 -22 7.5l-11 2.5l-13 -15.5t-29.5 -35.5t-32 -39t-20.5 -25q-5 -7 0 -9t7 -2q4 0 4 -1v-2q1 0 3 0.5t11 5.5q13 8 32.5 10t44.5 1.5
t55 -2t65 -1.5h72l11.5 14.5t25 32.5t24.5 34t10 19z" />
    <glyph glyph-name="greater" unicode="&#x3e;" horiz-adv-x="347" 
d="M344 402l-225 347l-13 7l-84 -60l236 -328l-240 -325l47 -32z" />
    <glyph glyph-name="question" unicode="?" horiz-adv-x="343" 
d="M325 773q-3 10 -18 24.5t-34 28t-37.5 23.5t-29.5 10q-8 0 -26 -4.5t-37 -10.5t-34.5 -12t-17.5 -10l-12.5 -13.5t-27 -32t-27 -39t-12.5 -34.5q0 -15 3 -32t7.5 -34.5t10.5 -34t13 -28.5q2 -3 3 -14.5t-7 -18.5l12 -7q8 17 19 24q22 17 53 32t52 20l-4 10q-11 3 -19 9.5
t-15 12.5q-20 18 -32 48.5t-12 54.5q0 23 5.5 44t17.5 21q23 0 41.5 -15t32 -37t22.5 -46t14 -42q1 -8 2.5 -26t0 -39.5t-6 -42.5t-14.5 -36q-21 -30 -44.5 -62.5t-43 -64.5t-32 -61t-12.5 -52q0 -26 7.5 -52.5t17 -47.5t17 -33.5l7.5 -12.5q4 0 18.5 11t30.5 24.5t28 24.5
l12 11q0 8 -9 23t-20.5 33t-20.5 38t-9 38q0 19 2.5 34.5t8.5 29.5t14.5 27.5t20.5 29.5q22 30 50.5 63.5t50.5 72t30 81.5t-10 92zM230 50q0 7 -12.5 17.5t-23.5 17.5q-10 7 -16 17t-11 10q-4 0 -13 -12t-20 -20q-10 -7 -21 -14.5t-11 -13.5q0 -5 11 -11.5t21 -14.5
q11 -11 20.5 -22t13.5 -11t12.5 9.5t16.5 16.5q10 10 21.5 17.5t11.5 13.5z" />
    <glyph glyph-name="at" unicode="@" horiz-adv-x="821" 
d="M777 488q0 43 -21.5 85.5t-58.5 76t-86.5 54t-104.5 20.5q-50 0 -104 -15t-105 -41.5t-97 -62.5t-80.5 -77t-54.5 -85t-20 -88q0 -62 18.5 -125t54 -114t86 -83.5t114.5 -32.5q14 0 35 6t44.5 17.5t47 28t41.5 38.5q-8 -6 -18 -13t-21.5 -13t-22.5 -10t-20 -4
q-62 0 -105.5 24t-72 61t-45 81.5t-24 85.5t-9.5 73.5t-2 44.5q0 42 21 86t57.5 80t86 59.5t105.5 23.5q33 0 77.5 -12.5t85 -38t69 -63.5t28.5 -89q0 -24 -6 -45.5t-14.5 -40.5t-18 -33.5t-17.5 -24.5q-5 19 -13 42.5t-17.5 46.5t-20.5 45t-20 38q-17 29 -35 47.5t-35.5 29
t-32.5 14t-27 3.5t-31.5 -7t-39 -18.5t-36.5 -27t-25 -32.5q21 18 55 18q9 0 24.5 -9.5t34.5 -29t39 -48t40 -67.5q-39 25 -82 34.5t-80 1.5t-61 -32.5t-24 -66.5q0 -27 20.5 -57t46.5 -55.5t50.5 -42.5t33.5 -17q33 0 75.5 14t86 39t85 58.5t74 73.5t52.5 83.5t20 87.5z
M530 224l-9.5 -9.5t-21 -18t-20.5 -9.5q-15 0 -37.5 17t-42.5 41t-34.5 49.5t-14.5 42.5q0 10 6.5 17t16 11.5t21 6t21.5 -0.5q16 -5 33 -17.5t32.5 -31.5t28.5 -44t21 -54z" />
    <glyph glyph-name="A" unicode="A" horiz-adv-x="788" 
d="M537 461q17 -36 33.5 -73t33.5 -73q1 -3 8.5 -18l19 -38t26.5 -51t31 -57q13 -24 26 -46.5t24.5 -41t19 -30t8.5 -12.5q-9 -3 -25.5 -9.5t-35.5 -11.5t-37.5 -6t-33.5 6q10 20 2 40t-19 45l-66 154l-169 10q-42 2 -81.5 0t-75.5 -10l-79 -155q-8 -14 -14 -25t-9 -25
q-5 -19 -9 -24.5t-23 -5.5h-30q-35 0 -44 9t12 32q6 7 16 21.5t21 32.5t22.5 38t21.5 38l39 64q-5 -8 -9.5 0.5t-3 22.5t13 27.5t37.5 14.5l130 221l6 12l8.5 17t8 17t3.5 13q2 17 3.5 31.5t4.5 14.5q5 0 22 6.5t35.5 14.5t34.5 14t19 5q-2 -12 1.5 -29.5t12.5 -30.5
q10 -27 26.5 -67t33.5 -82zM529 291l-44 109q-34 82 -81 151l-156 -257l149 -12q48 -2 82 0.5t50 8.5z" />
    <glyph glyph-name="B" unicode="B" horiz-adv-x="738" 
d="M392 437q72 -9 130.5 -29.5t101 -47t68 -55.5t32.5 -55q9 -41 5.5 -75.5t-23 -66t-56.5 -60.5t-95 -58q-59 -6 -119 -9t-111 -3h-30t-26 1q28 -2 26.5 -1t-19.5 2.5t-46 3.5t-54 3.5t-43 2.5t-12 0q-2 1 -12 3t-25 1.5t-33 -5t-36 -17.5q-9 6 -3 15t17.5 19t24.5 19
t19 15q4 3 8.5 10.5t4.5 23.5l-4 504q0 34 -5 56t-10 22q-16 0 -21.5 7t1.5 16t27.5 17.5t55.5 12.5l49.5 5.5t69.5 3.5q12 0 29 -0.5t35 -1.5l36 -2t33 -2q43 -4 80.5 -11.5t65.5 -21t44 -33t16 -46.5q0 -16 -13.5 -34.5t-34 -36.5t-45 -34.5t-46.5 -29.5t-37.5 -20.5
t-19.5 -7.5zM280 662l-81 -6q-2 -7 -11 -17.5t-12 -26.5q-3 -20 -3.5 -50.5t0.5 -62t2 -58t1 -36.5q12 2 37.5 11t57 23t66 32t66 38t56 40.5t35.5 40.5q5 5 2 12.5t-5 14.5q-3 15 -23 24.5t-50 14.5t-66 6t-72 0zM176 334l4 -297q0 -4 12 -6.5t28 -4t31.5 -2t21.5 -0.5
q18 0 52.5 -1t66.5 -1q11 0 19.5 0.5t16.5 1.5q44 6 85.5 28t70.5 53t41 68t-3 73q-9 21 -29.5 41t-47 36.5t-58 30t-62 22.5t-59 12.5t-49.5 1.5q-9 -1 -26.5 -8.5t-37.5 -16.5t-40.5 -18t-36.5 -13z" />
    <glyph glyph-name="C" unicode="C" horiz-adv-x="804" 
d="M195 100q11 -9 37 -21.5t62 -23t79 -15t88 2.5q22 3 53 14.5t62.5 27.5t59 34.5t44.5 36.5q11 13 24.5 27t21.5 28q3 5 18.5 1t24.5 -12q4 -5 10 -7.5t9.5 -8.5t2 -19.5t-11.5 -40.5q-4 -5 -21 -17t-36 -24t-34 -21.5l-15 -9.5q-24 -11 -51 -23.5t-59 -23t-70.5 -17.5
t-86.5 -7q-127 0 -204 25t-119 68t-56 101t-14 125q0 10 4.5 35t14 55t23 60t31.5 50q43 49 87.5 80.5t85.5 50t77.5 26.5t64.5 10.5t45.5 1t21.5 -1.5q29 0 59.5 -4.5t63.5 -12.5q18 -4 38.5 -12.5t39 -17.5t32.5 -15.5t20 -6.5q12 -9 15.5 -13.5t0.5 -8t-11.5 -8
t-20.5 -14.5q-9 -8 -18.5 -9.5t-18.5 1t-18 7t-18 7.5q-31 12 -75.5 29t-97 23t-110 -6.5t-114.5 -59.5q-17 -14 -41 -41.5t-44 -62.5q-3 -5 -8 -19t-10 -33.5t-9 -42.5t-5 -47q-2 -21 0 -47t10 -52.5t24 -52.5t43 -48z" />
    <glyph glyph-name="D" unicode="D" horiz-adv-x="846" 
d="M178 61q0 -3 11.5 -4.5t29 -3t38 -2t38.5 -0.5h40q36 0 76 14.5t79 38.5t75.5 54t65.5 62q51 54 80 104t29 85q0 10 -3 19v5q0 21 -13 41t-34.5 38t-49.5 32.5t-59 25.5q-36 13 -69.5 18t-62.5 9q-9 1 -17 1.5t-15 2.5q-24 -2 -55.5 -2.5t-59.5 -0.5q-25 0 -42 -0.5
t-16 -2.5q-7 0 -16 -0.5t-17.5 -2.5t-14.5 -6.5t-6 -13.5q-1 -41 -2.5 -72t-3.5 -57q-2 -23 -2.5 -41.5t-0.5 -36.5q0 -27 3 -60zM327 -14q-42 0 -86.5 3t-78.5 6q-8 1 -16 1h-15h-22q-10 0 -21 -1q-5 0 -10 -0.5t-10 -0.5q-8 0 -23 -5q-6 -2 -15 -4t-7 -2q-1 0 -1.5 0.5
t-1.5 0.5q-4 2 -6.5 3.5t-2.5 6.5q0 9 14 28.5t38 39.5h-1q1 1 4 3l3 2h-1q7 5 8 12v-1q0 4 1.5 27t4.5 59t6.5 81t7.5 93q1 10 1 19v20q0 23 -1 45.5t-3 42.5q-3 31 -3 53q0 28 -7 43t-9 17q-5 7 -9 10t-9 6h1q-11 6 -15 13q-3 4 -3 9q0 9 12.5 17.5t44.5 13.5q11 2 23.5 4
t29.5 4q6 0 11.5 1t11.5 2q5 0 11 0.5t12 1.5q34 2 65 3t61 1q15 0 30 -0.5t30 -0.5q20 0 57 -1.5t81.5 -7.5t92 -17t89.5 -30q58 -27 96.5 -70.5t38.5 -112.5q0 -52 -31.5 -118t-90.5 -127q-39 -41 -86.5 -76t-98.5 -61t-102.5 -41t-99.5 -15z" />
    <glyph glyph-name="E" unicode="E" horiz-adv-x="730" 
d="M154 424q1 -42 0.5 -83t-2.5 -80q-1 -21 -0.5 -44.5t2 -46t2.5 -41t1 -29.5q0 -23 1 -32.5t15 -7.5l150 -2h42q34 0 66 1.5t55 4.5q16 1 39.5 2t49 2t49.5 3.5t40 6.5q27 7 49.5 13.5t28.5 8.5q21 7 29.5 6.5t-0.5 -22.5q-3 -8 -13 -17.5t-25 -27.5q-3 -3 -9 -10.5
t-15 -16t-19 -16t-20 -10.5q-4 -1 -10.5 1t-18 4.5t-29 3.5t-43.5 -1q-34 -3 -69.5 -4.5t-66 -2.5t-52.5 -1h-28q-15 0 -43.5 -0.5t-61.5 -0.5h-67t-61 1q-18 1 -30.5 -0.5t-22.5 -1.5q-27 0 -29.5 14.5t15.5 40.5q4 6 6.5 8t3.5 4t1.5 6.5t0.5 14.5l2 176v53q0 37 -2 68.5
t-5 76.5q-1 36 -0.5 76t-7.5 67q-2 8 -10 14t-14.5 11.5t-10 11t3.5 12.5q3 3 5 7t6 8t10 7t18 3q63 0 138.5 1t145.5 2.5t123.5 2.5t71.5 1q8 3 19.5 4.5t22.5 2.5t20 1h14q17 -2 14.5 -12.5t-14.5 -24.5q-5 -5 -7 -8.5t-4 -6t-5.5 -6t-10.5 -8.5q-24 -17 -50 -23
q-5 -1 -20.5 0.5t-38 4t-49.5 5t-54 2.5l-211 -1q-12 0 -15.5 -15t-3 -33t3.5 -34t4 -18q42 -5 98.5 -2t117.5 2q46 1 88.5 1.5t78.5 0.5q37 0 65.5 -0.5t45.5 -1.5q25 -2 26 -11.5t-23 -37.5q-5 -6 -11.5 -13.5t-16.5 -15.5q-5 -5 -26 -3t-52.5 5.5t-71 7t-80.5 2.5
q-45 -1 -87.5 -2.5t-76.5 -3t-54.5 -2.5t-20.5 -2z" />
    <glyph glyph-name="F" unicode="F" horiz-adv-x="672" 
d="M172 431q-2 -65 -4.5 -141t3.5 -166q-2 -27 2.5 -57t15.5 -50q0 -8 -4 -14t-9 -13q-6 1 -19.5 -1t-30.5 -6t-36.5 -8.5t-37.5 -8.5q-19 -3 -22 14q0 7 10.5 19t18.5 24q5 9 8 14t5 10t2.5 12t-0.5 19q0 75 0.5 126t0 85.5t-0.5 56.5q0 23 -0.5 39.5t-2 31.5t-2.5 36
q0 58 -1 90.5t-7 53.5v-1q-3 9 -9.5 15t-14 12t-13 12t-5.5 15q0 7 5 12q35 7 72.5 7.5t72.5 -1.5t67 -4t57 1h49h33t21.5 0.5t16.5 0.5q43 3 85.5 6.5t64.5 8.5q-2 0 5.5 1.5t17.5 4t19.5 4.5t12.5 2h3q20 -2 20 -17q0 -7 -4.5 -14.5t-11.5 -15.5q-6 -6 -8.5 -9.5t-4 -6
t-4.5 -5.5t-11 -8q-12 -8 -24 -14.5t-27 -9.5h-7q-7 0 -17.5 0.5t-21.5 2.5q-23 3 -53.5 6t-61.5 3l-208 -1q-7 0 -9.5 -12t-2.5 -26q0 -17 1.5 -33t3.5 -21q45 -4 97 -2t110 2q46 0 93.5 1t86.5 1.5t66 0.5h33q9 5 18.5 2t8.5 -17q0 -8 -5.5 -19t-17.5 -25q-4 -3 -8.5 -9.5
t-10 -12.5t-12.5 -10.5t-16 -2.5q-47 2 -92.5 9t-98.5 7q-38 4 -78.5 5.5t-75 0.5t-60.5 -4.5t-36 -7.5z" />
    <glyph glyph-name="G" unicode="G" horiz-adv-x="794" 
d="M484 710q96 0 171.5 -17.5t110.5 -43.5q9 -8 9 -14q0 -11 -16 -20.5t-38 -14.5q-25 -5 -45 -5q-21 0 -34 8q-24 23 -57.5 35.5t-72 15.5t-78.5 -2t-76 -16q-30 -9 -69.5 -32t-76 -56.5t-63.5 -75.5t-31 -89q-3 -26 0 -53t10 -52.5t15.5 -47.5t17.5 -37q14 -29 40.5 -57.5
t55.5 -46.5q2 -2 16.5 -10.5t35.5 -17.5t46 -15.5t49 -5.5q15 1 34 -1t33 1q46 12 85.5 26t67.5 28t43 28.5t14 26.5q-3 32 -1.5 47.5t1.5 27.5q0 19 -1.5 40.5t-1.5 41.5q0 14 -5 19t-11.5 6.5t-12.5 1t-7 1.5q-3 1 -15 1h-21h-20q-8 0 -12 2q-17 8 -18.5 19.5t3.5 22
t13.5 18t13.5 7.5q17 -9 38.5 -10.5t44.5 0.5q52 5 75.5 4.5t33.5 -11.5t4 -48.5t-9 -100.5q2 -32 3.5 -54.5t0 -37.5t-7 -24.5t-16.5 -15.5l-14 -9t-34.5 -21t-44 -24t-42.5 -18q-38 -13 -75 -22.5t-67 -16t-50.5 -9.5t-24.5 -3q-49 -5 -86 -2.5t-65.5 11t-51.5 22.5
t-45 32q-35 29 -60.5 63t-41.5 69.5t-23.5 71.5t-7.5 68q0 31 8 66.5t23.5 70.5t38.5 69t52 63q63 60 146.5 91.5t195.5 31.5z" />
    <glyph glyph-name="H" unicode="H" horiz-adv-x="754" 
d="M187 538q-2 -18 -3 -29.5t-2 -22.5t-1.5 -27t-0.5 -43q1 -7 1 -12q0 -4 1.5 -7.5t5 -6t12.5 -3.5q19 -3 46 -3.5t54.5 0t52.5 1.5t40 0q23 1 43 1h41q60 0 98 5.5t38 24.5q-3 49 -1 95t-7 92q-2 10 -4.5 24t-6.5 25q-4 5 1 11.5t15 11.5q17 10 42.5 16.5t42.5 8.5
q22 0 22 -13q2 -48 -2.5 -94.5t-4.5 -94.5q-2 -41 -3.5 -77.5t-2.5 -72.5t0.5 -74.5t5.5 -84.5q2 -36 5 -64t5 -39q5 -20 5 -30q0 -17 -11 -28q-16 -16 -51 -23q-5 0 -11 -3.5t-13 -6.5q-7 -4 -14 -6.5t-15 -2.5h-2l-1 -4q-2 -7 -2 -4t2 4q-5 0 -12.5 4t-8.5 15q0 2 -0.5 3
t-0.5 3l2.5 15.5t4.5 30.5q4 23 7 43t5 41t3.5 44t3.5 52q1 19 1.5 45t0.5 48q0 14 -27 17.5t-70 3.5h-52q-17 0 -34 -0.5t-34 -0.5h-86q-58 0 -92.5 -4.5t-34.5 -20.5v-1v-29t-1 -29q0 -11 -0.5 -20.5t-0.5 -17.5q-1 -84 0 -126t5 -58q7 -19 -3.5 -27t-26.5 -17
q-11 -6 -28 -10t-28 -12q-11 -1 -19 -3.5t-14 -2.5t-10.5 3.5t-7.5 14.5q0 3 3.5 13.5t6.5 20.5t3.5 14.5t-4.5 -5.5q4 14 6 28t3.5 31.5t2.5 39.5t4 52q2 24 2 47t1 44q1 19 1.5 36t1.5 31q1 16 1 30v29q0 26 -0.5 50.5t-2.5 52.5q-1 38 -3 71t-12 63v1q0 10 0.5 15.5t5 9
t14 6t26.5 7.5l2 1q14 13 34 20.5t40 10.5q13 0 18 -6q-1 -7 -2 -12t-2 -11q-2 -11 -4 -23t-3.5 -28t-2.5 -37t-2 -50z" />
    <glyph glyph-name="I" unicode="I" horiz-adv-x="248" 
d="M87 551q-1 7 -1.5 19t-1.5 24q-2 22 -3 26q-6 8 -10 12t-6 8q-2 7 3 11t13 9q10 7 26.5 15t37.5 20q31 20 53 21.5t19 -6.5q-2 -6 -6 -23.5t-6 -43.5q-5 -66 -7.5 -124.5t-2.5 -122.5t2.5 -140t7.5 -176q1 -17 5 -25.5t2 -13.5t-13 -10t-39 -13q-12 -7 -29.5 -17
t-34.5 -15q-27 -7 -34 1.5t-2 15.5q18 25 21.5 46.5t5.5 31.5v470z" />
    <glyph glyph-name="J" unicode="J" horiz-adv-x="493" 
d="M339 664q19 11 42.5 23.5t38.5 15.5l14 3.5t8 -2.5q3 -8 4.5 -12.5t1 -8t-2.5 -8l-6 -13.5q-3 -15 -3 -18v-4v-8t-3 -32q1 -14 0.5 -35.5t-0.5 -46.5q0 -24 -0.5 -49t0.5 -46q3 -50 0.5 -125t-11.5 -175q-7 -94 -31 -137.5t-61 -53.5q-20 -6 -44 -6t-49 3.5t-49.5 9.5
t-45.5 13q-9 3 -25 8.5t-34 11.5t-34 10.5t-24 5.5q-17 2 -19 3t-6 11q-4 12 3.5 20t24.5 17q9 4 18.5 10t18 12t15 11t9.5 7q22 13 37 3t40 -38q19 -20 42.5 -31t46.5 -13q16 -1 29 16.5t22 41.5t13.5 47t4.5 33q3 73 3.5 130.5t-1.5 104.5q-2 45 -2.5 78t-1.5 58
t-4.5 41.5t-11.5 28.5q-3 6 -10 11.5t-13.5 10t-10.5 8.5t-1 9t10 12.5t21 18.5z" />
    <glyph glyph-name="K" unicode="K" horiz-adv-x="776" 
d="M698 713l1 1q0 1 1 2v-3h-2zM316 420q21 14 58 41.5t75 59.5q10 9 23 20t24.5 22t21 23t13.5 24q3 8 5 14.5t4 11.5q3 10 20 31q13 4 31 10.5t37.5 13t38 13t31.5 9.5q-10 -15 -50 -62t-112 -113q-20 -20 -51.5 -47t-65 -54t-64.5 -49t-49 -32q27 -26 64 -57t79 -63
t86.5 -63.5t87 -57t80 -44t66.5 -25.5q17 -6 20.5 -11.5t-0.5 -10.5q-6 -7 -21.5 -13t-28.5 -11q-11 -4 -21 -10t-19 -10.5t-17 -5.5t-15 6q-16 1 -47 18.5t-68 43t-76 54t-70 52.5q-27 22 -47 37.5t-37 28.5t-32 24t-32 24q0 1 -8 7t-19 12.5t-21.5 12t-16.5 5.5
q-4 0 -6.5 -0.5t-2.5 -5.5q-1 -5 -2 -7.5t-1.5 -13.5t-1 -36.5t-0.5 -76.5q0 -9 1.5 -26.5t3 -37l3 -39l2.5 -32.5q0 -7 -18 -13q-28 -7 -54 -14t-57 -14q-16 0 -16 16q0 9 4 20.5t7 19.5v2q4 73 5 140.5t8 145.5v84t-0.5 68t-1.5 63.5t-3 69.5q-4 12 -6 19t3 16q5 8 15 13
t20 11q20 12 42.5 21.5t42.5 11.5q16 0 20 -3.5t4 -9.5q0 -7 -2 -15t-4 -18q-4 -28 -6 -67t-3 -80.5t-2 -81.5t-3 -68q33 5 66.5 24t65.5 35z" />
    <glyph glyph-name="L" unicode="L" horiz-adv-x="737" 
d="M320 40l122 -2q39 1 58 2.5t33 4t30.5 5t51.5 5.5q22 6 36 10.5t24.5 7t19 4t19.5 1.5q3 0 2 -5t-3.5 -11.5t-5.5 -13t-4 -8.5q-10 -24 -32 -36q-11 -4 -22.5 -5.5t-28.5 1.5h-474q-14 0 -29.5 -2t-31.5 -5q-21 -5 -36 -8t-14 1q0 2 20 14q0 5 10 14.5t17 17.5q8 8 18 25
t10 30l9 225q2 48 0.5 93.5t-3.5 84.5q-2 25 -5.5 48.5t-10 44.5t-16.5 37.5t-25 26.5q-5 3 -4 6.5t5 7t10 6.5l12 6q17 6 42 12.5t45 14.5q18 7 32 13t24 8t15 -2.5t4 -18.5q0 -6 -2 -27t-5 -45t-5 -46t-2 -31q-8 -39 -10 -65.5t-2 -57.5v-44q0 -24 0.5 -57t0.5 -79
q0 -8 0.5 -26.5t1.5 -39.5t2.5 -40t2.5 -27q0 -9 -0.5 -19.5t1.5 -20.5t8 -17t19 -9z" />
    <glyph glyph-name="M" unicode="M" horiz-adv-x="1009" 
d="M189 534q4 21 6.5 43t7.5 42q3 11 5.5 20.5t11.5 16.5q11 8 29.5 17t50.5 14q13 1 24 -21q6 -12 11.5 -29t13.5 -37q25 -65 46 -119.5t40.5 -105t40 -99t44.5 -100.5q25 52 47.5 102t45.5 99q10 23 23 51t24.5 53.5t21 46t12.5 29.5q11 29 23.5 59.5t20.5 47.5
q17 19 31 23q14 5 25 1t17 -12q5 -7 9 -27.5t6 -33.5q8 -31 14 -60l12 -58q8 -39 17 -80t23 -92q17 -62 36 -126.5t36 -115.5q9 -25 27 -49q13 -17 18 -24.5t-3 -9.5q-6 -2 -18 -2.5t-34 -1.5h-23h-23q-10 0 -17.5 1t-7.5 3q-2 11 -1.5 23t-1.5 20q-2 7 -6.5 24.5t-10 38
l-11 41t-9.5 34.5q-19 66 -36.5 136t-34.5 127q-7 24 -11.5 30.5t-12.5 -21.5q-28 -61 -55 -121.5t-48 -109t-34.5 -78.5t-15.5 -30q-22 -54 -34 -84t-30 -28h-12t-16.5 1.5t-16 3.5t-9.5 7q-11 24 -25 59t-27.5 70.5t-26 67.5t-19 50.5t-7.5 19.5q-22 55 -36.5 91.5
t-23.5 58.5t-14.5 32t-9.5 13q-8 5 -13.5 -7.5t-21.5 -49.5q-2 -6 -7 -22.5t-10.5 -36.5t-10.5 -39.5t-6 -31.5q-8 -20 -15.5 -46.5t-14 -54.5t-11 -53.5t-6.5 -42.5q-4 -27 -2.5 -47.5t-7.5 -32.5q-7 -9 -32.5 -13.5t-60.5 -9.5q-12 -2 -23.5 2t-9.5 9q2 10 7.5 23.5
t11 26.5t10 22l4.5 9q19 60 35 119t30 107q21 78 34.5 133t20.5 94z" />
    <glyph glyph-name="N" unicode="N" horiz-adv-x="807" 
d="M757 516q0 -21 -0.5 -42.5t-1.5 -46t-1.5 -53.5t-0.5 -65q0 -14 1 -47t1.5 -68t1 -64.5t0.5 -35.5q-1 -17 0 -33.5t-7 -35.5q-3 -6 -10.5 -14t-18 -13.5t-22 -6t-22.5 8.5q-7 6 -11 9.5t-8 6.5t-8 6.5t-11 11.5q-63 58 -116 117.5t-115 117.5q-56 58 -97 100.5t-69.5 71
t-46 44t-26.5 19.5q-11 5 -15.5 -1t-5.5 -22q-1 -37 -2.5 -66t2.5 -62q1 -14 1.5 -39t0 -52.5t-1 -54t0.5 -43.5q0 -13 1 -34t2 -42.5t2.5 -39.5t3.5 -25t-5.5 -14t-13.5 -9q-11 -5 -25 -6.5t-30 -5.5q-10 -2 -20 -2.5t-18 -5.5q-5 -2 -5 6t2 22q2 13 5 30t6 33.5t4.5 31.5
t-0.5 24v5q0 5 1 19.5t1.5 43t1.5 76.5q1 67 0 129.5t-3 104.5q0 11 -1 30.5t-1.5 40t-1 37.5t0.5 23q1 9 18 19.5t31 17.5q14 6 26 11t24 9q8 2 10.5 -4.5t7.5 -6.5q7 -10 25.5 -34t44 -56t55 -68.5t58 -70.5t54 -62.5t42.5 -44.5q20 -24 44 -52t49 -49q35 -31 64 -58.5
t62 -45.5q2 7 4 32t4 53t3.5 53.5t1.5 34.5q0 38 -1.5 77l-2.5 65q-1 15 -1.5 26t-1 23t-2.5 26.5t-5 36.5q-2 18 -4.5 34t-4.5 32q2 3 5.5 12.5t8.5 12.5q18 9 41.5 19t41.5 15q7 2 8 -1t4 -5q-1 -17 -2.5 -41.5t-4 -49.5t-4 -46.5t-2.5 -33.5z" />
    <glyph glyph-name="O" unicode="O" horiz-adv-x="883" 
d="M470 339q0 18 -11.5 27t-25.5 9t-25.5 -9t-11.5 -27t11.5 -26.5t25.5 -8.5t25.5 8.5t11.5 26.5zM416 625q-64 0 -111.5 -16.5t-81 -43t-55 -59t-34 -64t-17 -58.5t-4.5 -42q0 -72 27 -122t66 -81.5t81 -48.5t72 -23q31 -6 60 -6q57 -2 99 6t77 30q42 10 76 45.5t57.5 79
t36.5 87t13 69.5q0 2 -0.5 5t-0.5 5q-6 37 -13.5 56t-19.5 28q-6 11 -31 36t-66 51t-98 46t-128 20h-5zM453 699q70 -4 126 -17.5t100 -34.5t76 -48t54 -57q20 -28 26.5 -55t9.5 -56l3 -18v-13q0 -47 -13.5 -98.5t-37.5 -101t-58 -92t-75 -71.5q-23 -15 -53.5 -26.5
t-64.5 -19t-68 -11.5t-63 -4q-99 0 -171 26t-118.5 70.5t-68.5 104.5t-22 128q0 87 27 150t68 107t91.5 71t96.5 41.5t83 19.5t52 5z" />
    <glyph glyph-name="P" unicode="P" horiz-adv-x="687" 
d="M243 20h-7t-13 2t-14 6t-9 12q-5 17 -8.5 48t-5 64.5t-1 63.5t2.5 44q1 5 16.5 3t35 -5.5t37 -6.5t23.5 0q66 -5 119 7t94 31.5t70 42t46 38.5q7 6 13 16t11 20t8 18.5t3 11.5q3 30 -3 61t-21 58.5t-39 50t-55 35.5q-13 10 -42.5 18t-68 13t-82 8.5t-83 5.5t-72.5 2
q-32 0 -48 -1q-15 2 -32.5 2.5t-33 -2t-25.5 -7.5t-9 -15q1 -8 10.5 -12t14.5 -15t6 -28.5t5 -43.5q1 -5 1.5 -27.5t2.5 -70.5q2 -44 0 -86t0 -99q1 -32 0.5 -66.5t-2 -68t-4 -62.5t-6.5 -48q-2 -7 -11.5 -12t-17.5 -8q-5 -2 -6 -4.5t-0.5 -5.5t1.5 -5t0 -3q15 0 38 0.5
t46 1.5t44 1.5t32 0.5q13 0 14.5 -0.5t1.5 -1.5t3 -1.5t17 -0.5zM179 500v25v35t0.5 32.5t2.5 19.5q3 10 8 16t10 7q34 4 81.5 1t95 -10.5t86 -18.5t54.5 -24q38 -31 53.5 -64.5t10.5 -66t-31 -61.5t-71 -52q-17 -9 -39 -16.5t-46 -13.5t-48.5 -8.5t-46.5 -0.5
q-16 1 -33.5 5.5t-33.5 9t-29.5 8.5t-20.5 6v35v25t-0.5 29.5t-1.5 51.5z" />
    <glyph glyph-name="Q" unicode="Q" horiz-adv-x="900" 
d="M467 696q70 -4 126 -17.5t100 -34.5t76 -48t54 -57q22 -32 28 -63.5t11 -65.5q2 -48 -10.5 -101.5t-37 -104.5t-59.5 -95.5t-78 -74.5q-8 -5 -13 -7.5t-10 -4t-11.5 -4.5t-18.5 -9q-3 -2 -9 -4.5t-3 -4.5q10 -5 20 -12.5t26.5 -16.5t43 -18.5t69.5 -18.5q14 -3 33 -4.5
t36.5 -2.5t29.5 -1.5t11 -0.5q-2 -1 8.5 0.5t27 3.5t36 4t34.5 2.5t23.5 -1.5t2.5 -9q-2 -2 -8.5 -5.5t-15 -7.5t-17 -7.5t-13.5 -4.5q-10 -3 -20 -5.5t-24 -4.5t-36 -5t-56 -6q-32 -3 -75.5 6t-91 23.5t-94.5 32.5t-86 33q-4 2 -10 -0.5t-10 -2.5h-10q-3 0 -5 0.5t-4.5 1
t-8.5 0.5q-99 0 -171 26t-118 70.5t-68 104t-22 127.5q0 87 27 150.5t68 107.5t91.5 71t96.5 41.5t83 19.5t52 5zM434 631q-67 1 -116.5 -16t-85 -44.5t-57.5 -61t-35 -66t-17.5 -60.5t-4.5 -44q0 -50 13 -89.5t34.5 -69.5t48.5 -51.5t55 -36.5t54.5 -24t47.5 -13
q16 -3 32.5 -8t30.5 -2q2 1 6 1q5 0 4 3q-2 9 4.5 13t18 5t26.5 -1.5t32 -5.5q5 -1 9 -0.5t9 1.5q28 3 46.5 13t25.5 12q30 7 56 28t47.5 49.5t37.5 61t26.5 63.5t15 57t2.5 41q-6 38 -14 58t-21 30q-6 11 -31.5 37t-67.5 52.5t-100.5 47t-131.5 20.5z" />
    <glyph glyph-name="R" unicode="R" horiz-adv-x="651" 
d="M182 358l8 -5q42 4 94.5 18t115.5 37q35 14 66 39t54 49q9 14 15 30.5t6 30.5q0 32 -22.5 50.5t-56 27.5t-71 11.5t-67.5 2.5q-24 -2 -42 -3t-33.5 -2.5t-31 -3.5t-33.5 -5l-2 -4v-273zM525 445q-20 -19 -33 -29.5t-24 -17t-23.5 -11t-31.5 -11.5q-16 -8 -24.5 -11.5
t-13.5 -7.5l-1 -7q6 -9 24 -31.5t40.5 -51t45.5 -57.5t41 -50q21 -23 36 -40t28 -30t24 -22t24 -17q7 -5 22 -5q49 -3 35 -16q-13 -11 -69 -30q-17 -4 -27.5 -12.5t-24.5 -13.5q-4 0 -7 3q-18 19 -46.5 52t-62 72.5t-68 81.5t-64.5 78q-14 17 -26.5 32.5t-23.5 28.5v1
q-2 2 -7 2h-4q-2 0 -5 -1q-8 -2 -24 -4.5t-46 -7.5l-4 -5q-2 -39 -2 -62q0 -22 0.5 -46t1 -57.5t0.5 -93.5q2 -12 3.5 -20t1.5 -13q0 -3 -2 -9v-1q-9 -5 -27.5 -12.5t-37.5 -14t-34.5 -11.5t-19.5 -5q-2 0 -2 1q-1 0 -1 1v0q0 3 2 6.5t4 8.5h1q5 11 11 27t6 37l-3 545
q0 8 -2.5 23t-10.5 27q-8 11 -13 16l-10 10q-9 7 -9 8q2 5 7.5 6.5t9.5 2.5q33 2 72 2.5t76 0.5h71t54 1q39 0 85 -2.5t87 -11t71 -24t38 -41.5q3 -14 3 -25q0 -12 -0.5 -19.5t-4 -15.5t-10 -19.5t-18.5 -31.5z" />
    <glyph glyph-name="S" unicode="S" horiz-adv-x="660" 
d="M484 427q29 -1 49 -3.5t23 -4.5q45 -13 63.5 -41t23 -60t-1 -64t-8.5 -54q-17 -51 -45 -86t-62 -58t-69.5 -36t-68.5 -19t-59 -7.5t-40 -1.5q-27 0 -71.5 7.5t-88.5 21.5q-27 8 -51.5 22t-42.5 30.5t-28.5 33.5t-9.5 32q9 10 19.5 25t19 24t14.5 8.5t7 -20.5
q0 -4 7.5 -14.5t11.5 -20.5q9 -22 28 -38.5t43 -28.5t52 -19.5t54 -12t48 -6t36 -1.5q63 0 103.5 23t65 52.5t34.5 56t11 33.5q3 20 3 43t-6.5 44t-21.5 37t-42 22q-14 3 -44.5 5.5t-63 4.5t-61 4t-37.5 4q-8 1 -23 2.5t-35.5 6.5t-45 15.5t-49.5 30.5q-6 4 -13.5 10
t-14.5 13.5t-13 18t-8 24.5q-5 32 5.5 58.5t33.5 48.5q22 21 52.5 37t67 27t77.5 16.5t83 5.5h24h28q15 0 28.5 -0.5t22.5 -1.5q16 -2 25 -3t15.5 -2t15 -2.5t23.5 -4.5q2 -12 0.5 -19.5t-7 -12.5t-15 -9.5t-24.5 -10.5q-6 4 -21 8t-33 7.5t-34 5.5t-23 2q-16 0 -38.5 -0.5
t-47.5 -3t-49.5 -7t-45.5 -12.5q-6 -3 -16.5 -8.5t-21 -12.5t-20 -15.5t-14.5 -15.5q-8 -12 -9 -28.5t9 -31.5q11 -16 35 -31.5t53 -23.5q25 -7 55 -10.5t60.5 -5t60 -2t53.5 -0.5z" />
    <glyph glyph-name="T" unicode="T" horiz-adv-x="703" 
d="M681 633q-5 0 -19.5 5.5t-35.5 6.5t-45 1h-47t-41.5 -0.5t-27.5 -0.5q-24 0 -41.5 1t-21.5 -1q-2 -4 -6.5 -14.5t-6.5 -29.5l-6 -81t-4 -132q0 -39 1.5 -83t3 -84.5t3 -73.5t2.5 -51t1.5 -28t1.5 -16.5t2.5 -12.5l4.5 -18q-9 -7 -12.5 -10.5t-8.5 -5.5t-14 -5t-28 -9
q-12 -3 -24 -7.5t-22 -7t-18 -2.5q-7 0 -10 5q-4 4 2 8.5t10 21.5q2 9 5.5 23t4.5 24q4 35 6.5 77t3.5 87t0 92t-2 91q-2 43 -4 82.5t-4 71.5t-4.5 54.5t-3.5 33.5q-14 0 -35 1t-45.5 1.5t-50.5 1t-49 0.5q-19 0 -41 -2.5t-41 -3.5t-31 -0.5t-10 6.5q5 12 15.5 24.5t22 21.5
t22 14.5t15.5 4.5q4 -1 16.5 -2.5t26.5 -2.5t26.5 -2t17.5 -1q12 0 24.5 -2t29.5 -1q33 1 74 0t84.5 -3t86.5 -2.5t80 2.5q9 1 17.5 2t16.5 1q16 0 41 1.5t50 4t44.5 4.5t24.5 4q16 0 25 -0.5t9.5 -5t-7.5 -15.5t-27 -33z" />
    <glyph glyph-name="U" unicode="U" horiz-adv-x="837" 
d="M745 100q1 -22 12 -39.5t14 -34.5q2 -8 -3.5 -13.5t-16 -10.5t-24.5 -10.5t-27 -11.5q-8 -4 -14.5 -7.5t-12.5 -4t-11 3.5t-10 16q4 14 -0.5 30.5t-1.5 25.5q2 6 1 8.5t-3 5t-4 5.5t-2 9q-38 -38 -74.5 -60.5t-73.5 -35t-74.5 -17.5t-76.5 -8h-24q-18 0 -44.5 3.5
t-58 11.5t-61.5 22q-21 10 -43.5 32.5t-40.5 52t-28.5 62.5t-7.5 65q0 37 2 63.5t5 48.5t7 42.5t9 45.5q8 29 16 51t14.5 39t12 31t8.5 28t4 26.5t-1 24.5q-2 14 1 26.5t23 14.5q15 2 20 4.5t20 6.5q6 1 16.5 3.5t21.5 4t20.5 2t13.5 -0.5q10 -4 12.5 -9t1 -9.5t-5.5 -9.5
t-8 -9q-6 -5 -5 -8.5t-10 -14.5q-31 -33 -52 -73.5t-34 -84t-19 -85.5t-8 -77.5t-0.5 -61t4.5 -34.5q6 -28 21.5 -52.5t36.5 -43.5t45 -32t45 -17q51 -10 90.5 -12t56.5 1q28 5 47 9t32.5 7t22 6.5t15.5 6.5q67 32 93 75t26 89q0 155 -0.5 240.5t0.5 103.5t-3.5 21.5
t-9.5 12.5q-8 13 -0.5 18.5t20.5 13.5q20 13 27.5 17.5t16.5 8.5q16 6 33 13.5t29 9.5q11 2 14.5 -2t2.5 -10.5t-4.5 -15.5t-6.5 -18q-5 -12 -9 -20.5t-8 -28t-7 -57.5t-5 -110v-319z" />
    <glyph glyph-name="V" unicode="V" horiz-adv-x="788" 
d="M269 162q-66 106 -124.5 219t-124.5 219q-11 11 -16.5 15.5t-6.5 11.5q-1 10 13 22t34 22q35 18 51 24t18 -8q0 -4 2 -13t4 -19l4 -20t4 -17q1 -9 7 -24.5t13.5 -32t15 -31.5t12.5 -23q0 1 11 -20.5t30.5 -58.5t46 -86t58.5 -104q7 -13 20 -34.5t27.5 -45.5t28 -45.5
t22.5 -34.5q4 7 8.5 5t7.5 4q19 34 34 68t28 69t24.5 71.5t23.5 76.5q30 97 45.5 152t15.5 76q0 16 1 24.5t-1 13.5q6 8 21 16.5t32.5 15.5t36 12.5t33 7t22 -1.5t4.5 -12q-6 -17 -19.5 -38t-20.5 -38q-30 -76 -60.5 -149t-59.5 -147q-20 -51 -40 -101.5t-39 -102.5
q-3 -6 -7.5 -16.5t-10 -22t-10 -22t-6.5 -16.5q-5 -14 -12 -22t-24 -13q-6 -2 -15 -3.5t-18.5 -3.5t-17.5 -3t-11 -1q-10 0 -15.5 7.5t-8.5 15.5q-8 18 -10 27t-9 19z" />
    <glyph glyph-name="W" unicode="W" horiz-adv-x="1147" 
d="M469 222q-3 -11 -5 -22.5t-7.5 -32.5t-17 -57t-33.5 -94q0 -9 -5.5 -20t-12.5 -18.5t-13 -9t-6 7.5q-1 1 -6.5 9t-14.5 21t-15 24q-4 6 -17.5 31.5t-32.5 62.5t-42 83t-46 94t-44.5 94t-37.5 84q-9 22 -20.5 44.5t-18.5 34.5t-8 14q-9 14 -13.5 21.5t-7 11.5t-4 6.5
t-3.5 6.5q-4 7 2 14t15.5 13.5t19.5 11t15 7.5q23 13 41.5 22.5t21.5 0.5q6 -16 9 -27.5t6.5 -26t9 -33.5t16.5 -50l13 -38t37 -97t57.5 -131t73.5 -140q1 -2 2 1.5t2.5 8t3 7.5t2.5 2q27 99 42 159.5t23.5 97t12.5 57.5t10 40q10 37 16.5 61t11 38.5t8.5 21.5t10 10
q6 2 21 5.5t26 6t13 2.5q20 2 31.5 -5t7.5 -20q-1 -4 0.5 -12t3.5 -17t4.5 -17.5t4.5 -12.5q16 -52 29.5 -101t29 -100t34 -107.5t44.5 -122.5q1 -3 3.5 -2t4.5 2.5t4.5 2t3.5 -2.5q18 35 30 58.5l24 47t25.5 52.5t33.5 76q22 45 42 85.5t34.5 75t23 61.5t7.5 45
q-1 13 13.5 22.5t32 15.5t33 9.5t17.5 4.5t7.5 2t9 -3t3 -13.5t-11.5 -29.5q-5 -10 -18.5 -38t-32.5 -67.5t-42.5 -88t-48 -99t-49 -100.5t-46 -93.5t-38.5 -77t-27 -51.5q-2 -3 -5.5 -10.5t-8.5 -17t-10.5 -19.5t-10.5 -18q-8 -13 -19 -13t-14 8q-26 58 -43.5 98.5
t-31 75.5t-25.5 70.5t-26 84.5q-14 47 -30 102.5t-36 100.5q-1 3 -1 2v-2v-2t-1 2l-4.5 -16.5t-11.5 -43.5t-15.5 -60t-16.5 -64.5t-15.5 -57.5t-11.5 -39z" />
    <glyph glyph-name="X" unicode="X" horiz-adv-x="811" 
d="M731 -13q19 5 33.5 10.5t14.5 12.5q0 6 -10 10q-5 4 -16 13t-18 15q-23 22 -54 55.5t-66 74t-71.5 85t-69.5 88.5q34 43 62.5 76.5t53.5 61t47.5 52t44.5 48.5q6 7 17 20t22.5 26.5t21.5 25t14 16.5q23 26 25.5 37t-14.5 9q-5 0 -14.5 -2t-20 -5.5t-21 -7.5t-19.5 -8
q-12 -5 -26.5 -9t-28 -8t-25.5 -8.5t-19 -10.5q-6 -4 -4.5 -6t4 -5t4 -8t-3.5 -15q-1 -3 -5 -9t-8.5 -13.5t-8.5 -14t-5 -10.5q-8 -29 -46 -77.5t-89 -111.5q-63 75 -102.5 133t-53.5 85q-5 8 -11.5 22t-8.5 28q-1 7 1.5 15.5t3.5 15t-1.5 9.5t-14.5 0q-8 -2 -21.5 -8
t-26.5 -12.5t-22.5 -12l-9.5 -5.5q-5 -5 -14 -9t-16.5 -9t-11 -10.5t3.5 -12.5q6 -5 10.5 -10t10.5 -11l14.5 -14.5t21.5 -20.5q24 -23 50 -53.5t51 -63t48 -63.5t41 -55q-25 -30 -43.5 -50.5t-42.5 -47.5t-60.5 -68.5t-96.5 -112.5q-9 -11 -21.5 -24.5t-25 -26t-22 -22.5
t-12.5 -14q-2 -3 -5.5 -9.5t-5.5 -12.5t0 -9t11 0q14 5 37 11.5t40 13.5q13 6 28.5 9t29 5.5t22.5 4.5t9 7q0 7 -3 14t3 21q4 8 11 17.5t14 18.5t13 16.5t9 11.5q8 12 13 17.5t10.5 11.5t14 17t23.5 34q9 12 20.5 26.5t24.5 29.5t25.5 29t23.5 26q42 -42 81.5 -88.5
t69.5 -84.5q20 -26 30.5 -44.5t12.5 -26.5q19 -23 28 -40t11 -22q5 -27 14.5 -31t20.5 8q11 13 24 19.5t21 20.5z" />
    <glyph glyph-name="Y" unicode="Y" horiz-adv-x="779" 
d="M670 535q-23 -40 -43.5 -72.5t-41.5 -66.5t-44 -72.5t-52 -90.5q-4 -5 -3 -12t1 -13q-3 -55 0 -102t1 -77q-1 -8 5.5 -13.5t8.5 -10.5q4 -11 6.5 -14.5t-11.5 -5.5q-20 -2 -42.5 1t-44.5 -3q-9 -2 -23.5 -4t-26.5 -1q-8 0 -15.5 2t-12 5t-4.5 7t7 8q2 11 7 13.5t7 13.5
q4 19 4 42q0 24 -0.5 48.5t-0.5 47.5q0 24 3 43q-2 5 -2.5 10.5t-3.5 11.5q-15 28 -40.5 64.5t-55 76.5t-60.5 80t-59 75q-38 48 -60.5 71.5t-24.5 26.5q-8 14 -14 24t2 16q13 9 21 14.5t14.5 10t14 8.5t19.5 8q11 4 26 12t21 11q12 6 15 2.5t3 -12.5q0 -8 -2 -17.5
t-1 -13.5q2 -7 8 -20.5t13 -27.5t13.5 -26.5t9.5 -17.5q7 -11 12 -18.5t10.5 -15t13 -17.5t20 -26.5t31.5 -41t47 -60.5q6 -7 21.5 -25t33 -38t32.5 -37t20 -22q8 14 16 25q45 69 81.5 128t59.5 103.5t31 72.5t-5 34q-3 2 -6.5 5.5t-4.5 8t1 9t10 7.5q29 11 62.5 23.5
t58.5 17.5q21 5 26.5 -0.5t-9.5 -24.5q-5 -14 -15.5 -30.5t-15.5 -29.5q-19 -23 -36.5 -54t-36.5 -54z" />
    <glyph glyph-name="Z" unicode="Z" horiz-adv-x="760" 
d="M766 11q1 -8 -3.5 -10.5t-12.5 -2t-18.5 2.5t-20.5 2q-19 1 -51 1t-71 -0.5t-82 -1.5t-85 -2q-78 -2 -149 0t-128 0q-18 -1 -35.5 2.5t-36.5 0.5q-20 -3 -30.5 -1t-12.5 7.5t2.5 12.5t13.5 14q44 50 80.5 98t65 89t49.5 72.5t35 49.5q63 78 113 144.5t83 112.5
q8 14 12.5 26t-12.5 12q-88 1 -167.5 -2t-144.5 -5q-8 0 -28.5 -4t-41.5 -10q-20 -5 -22.5 5.5t5.5 24.5q13 20 17.5 31.5t9.5 19.5q8 14 18 15t33 -1q33 -2 77.5 -1t102.5 3.5t130 3.5t160 -1q0 -2 7 -2q8 0 15 -2t9 -8.5t-9 -21.5q-71 -90 -135.5 -174.5t-131.5 -169.5
q-35 -45 -65.5 -90t-67.5 -95q-8 -12 -13.5 -27t-15.5 -30q-2 -8 2 -14.5t18 -6.5q17 0 66.5 -0.5t114 0t136 2.5t131.5 7q12 1 33 6t31 6q14 5 29 10.5t24 14.5q22 20 30.5 10t0.5 -38q-2 -10 -10.5 -20.5t-22.5 -25.5z" />
    <glyph glyph-name="bracketleft" unicode="[" horiz-adv-x="350" 
d="M304 0h-246q14 181 13.5 362.5t-13.5 364.5h246v-22h-107q17 -169 19 -343t-19 -339h107v-23z" />
    <glyph glyph-name="backslash" unicode="\" horiz-adv-x="404" 
d="M342 22l-55 -14l-27 8l-187 603l60 11l27 -8z" />
    <glyph glyph-name="bracketright" unicode="]" horiz-adv-x="350" 
d="M299 0h-245v23h106q-21 165 -19 339t19 343h-106v22h245q-12 -183 -13 -364.5t13 -362.5z" />
    <glyph glyph-name="asciicircum" unicode="^" horiz-adv-x="305" 
d="M276 473q0 4 -15.5 21t-35 35.5t-37.5 33t-22 14.5q-3 0 -22.5 -17t-42.5 -38t-42 -40.5t-21 -23.5l27 -18l8.5 11.5t19 25t20 25t12.5 11.5q4 0 17.5 -12.5t28 -27.5t27 -27.5t16.5 -12.5q3 0 13 5t21 11.5t19.5 13.5t8.5 10z" />
    <glyph glyph-name="underscore" unicode="_" horiz-adv-x="612" 
d="M574 -28v28h-537v-28h537z" />
    <glyph glyph-name="grave" unicode="`" horiz-adv-x="223" 
d="M142 506q1 0 -2 15t-7 36.5t-8 44.5t-7 39q-4 29 -7 53t-3 30l-1 6t-6 6q-4 0 -17 -10t-27.5 -22.5t-26 -22.5l-11.5 -10l109 -159l3 -4.5t11 -1.5z" />
    <glyph glyph-name="a" unicode="a" horiz-adv-x="788" 
d="M537 461q17 -36 33.5 -73t33.5 -73q1 -3 8.5 -18l19 -38t26.5 -51t31 -57q13 -24 26 -46.5t24.5 -41t19 -30t8.5 -12.5q-9 -3 -25.5 -9.5t-35.5 -11.5t-37.5 -6t-33.5 6q10 20 2 40t-19 45l-66 154l-169 10q-42 2 -81.5 0t-75.5 -10l-79 -155q-8 -14 -14 -25t-9 -25
q-5 -19 -9 -24.5t-23 -5.5h-30q-35 0 -44 9t12 32q6 7 16 21.5t21 32.5t22.5 38t21.5 38l39 64q-5 -8 -9.5 0.5t-3 22.5t13 27.5t37.5 14.5l130 221l6 12l8.5 17t8 17t3.5 13q2 17 3.5 31.5t4.5 14.5q5 0 22 6.5t35.5 14.5t34.5 14t19 5q-2 -12 1.5 -29.5t12.5 -30.5
q10 -27 26.5 -67t33.5 -82zM529 291l-44 109q-34 82 -81 151l-156 -257l149 -12q48 -2 82 0.5t50 8.5z" />
    <glyph glyph-name="b" unicode="b" horiz-adv-x="738" 
d="M392 427q72 -9 130.5 -29.5t101 -47t68 -55.5t32.5 -55q9 -41 5.5 -75.5t-23 -66t-56.5 -60.5t-95 -58q-59 -6 -119 -9t-111 -3h-30t-26 1q28 -2 26.5 -1t-19.5 2.5t-46 3.5t-54 3.5t-43 2.5t-12 0q-2 1 -12 3t-25 1.5t-33 -5t-36 -17.5q-9 6 -3 15t17.5 19t24.5 19
t19 15q4 3 8.5 10.5t4.5 23.5l-4 504q0 34 -5 56t-10 22q-16 0 -21.5 7t1.5 16t27.5 17.5t55.5 12.5l49.5 5.5t69.5 3.5q12 0 29 -0.5t35 -1.5l36 -2t33 -2q43 -4 80.5 -11.5t65.5 -21t44 -33t16 -46.5q0 -16 -13.5 -34.5t-34 -36.5t-45 -34.5t-46.5 -29.5t-37.5 -20.5
t-19.5 -7.5zM280 652l-81 -6q-2 -7 -11 -17.5t-12 -26.5q-3 -20 -3.5 -50.5t0.5 -62t2 -58t1 -36.5q12 2 37.5 11t57 23t66 32t66 38t56 40.5t35.5 40.5q5 5 2 12.5t-5 14.5q-3 15 -23 24.5t-50 14.5t-66 6t-72 0zM176 324l4 -297q0 -4 12 -6.5t28 -4t31.5 -2t21.5 -0.5
q18 0 52.5 -1t66.5 -1q11 0 19.5 0.5t16.5 1.5q44 6 85.5 28t70.5 53t41 68t-3 73q-9 21 -29.5 41t-47 36.5t-58 30t-62 22.5t-59 12.5t-49.5 1.5q-9 -1 -26.5 -8.5t-37.5 -16.5t-40.5 -18t-36.5 -13z" />
    <glyph glyph-name="c" unicode="c" horiz-adv-x="804" 
d="M195 100q11 -9 37 -21.5t62 -23t79 -15t88 2.5q22 3 53 14.5t62.5 27.5t59 34.5t44.5 36.5q11 13 24.5 27t21.5 28q3 5 18.5 1t24.5 -12q4 -5 10 -7.5t9.5 -8.5t2 -19.5t-11.5 -40.5q-4 -5 -21 -17t-36 -24t-34 -21.5l-15 -9.5q-24 -11 -51 -23.5t-59 -23t-70.5 -17.5
t-86.5 -7q-127 0 -204 25t-119 68t-56 101t-14 125q0 10 4.5 35t14 55t23 60t31.5 50q43 49 87.5 80.5t85.5 50t77.5 26.5t64.5 10.5t45.5 1t21.5 -1.5q29 0 59.5 -4.5t63.5 -12.5q18 -4 38.5 -12.5t39 -17.5t32.5 -15.5t20 -6.5q12 -9 15.5 -13.5t0.5 -8t-11.5 -8
t-20.5 -14.5q-9 -8 -18.5 -9.5t-18.5 1t-18 7t-18 7.5q-31 12 -75.5 29t-97 23t-110 -6.5t-114.5 -59.5q-17 -14 -41 -41.5t-44 -62.5q-3 -5 -8 -19t-10 -33.5t-9 -42.5t-5 -47q-2 -21 0 -47t10 -52.5t24 -52.5t43 -48z" />
    <glyph glyph-name="d" unicode="d" horiz-adv-x="846" 
d="M178 61q0 -3 11.5 -4.5t29 -3t38 -2t38.5 -0.5h40q36 0 76 14.5t79 38.5t75.5 54t65.5 62q51 54 80 104t29 85q0 10 -3 19v5q0 21 -13 41t-34.5 38t-49.5 32.5t-59 25.5q-36 13 -69.5 18t-62.5 9q-9 1 -17 1.5t-15 2.5q-24 -2 -55.5 -2.5t-59.5 -0.5q-25 0 -42 -0.5
t-16 -2.5q-7 0 -16 -0.5t-17.5 -2.5t-14.5 -6.5t-6 -13.5q-1 -41 -2.5 -72t-3.5 -57q-2 -23 -2.5 -41.5t-0.5 -36.5q0 -27 3 -60zM327 -14q-42 0 -86.5 3t-78.5 6q-8 1 -16 1h-15h-22q-10 0 -21 -1q-5 0 -10 -0.5t-10 -0.5q-8 0 -23 -5q-6 -2 -15 -4t-7 -2q-1 0 -1.5 0.5
t-1.5 0.5q-4 2 -6.5 3.5t-2.5 6.5q0 9 14 28.5t38 39.5h-1q1 1 4 3l3 2h-1q7 5 8 12v-1q0 4 1.5 27t4.5 59t6.5 81t7.5 93q1 10 1 19v20q0 23 -1 45.5t-3 42.5q-3 31 -3 53q0 28 -7 43t-9 17q-5 7 -9 10t-9 6h1q-11 6 -15 13q-3 4 -3 9q0 9 12.5 17.5t44.5 13.5q11 2 23.5 4
t29.5 4q6 0 11.5 1t11.5 2q5 0 11 0.5t12 1.5q34 2 65 3t61 1q15 0 30 -0.5t30 -0.5q20 0 57 -1.5t81.5 -7.5t92 -17t89.5 -30q58 -27 96.5 -70.5t38.5 -112.5q0 -52 -31.5 -118t-90.5 -127q-39 -41 -86.5 -76t-98.5 -61t-102.5 -41t-99.5 -15z" />
    <glyph glyph-name="e" unicode="e" horiz-adv-x="730" 
d="M154 424q1 -42 0.5 -83t-2.5 -80q-1 -21 -0.5 -44.5t2 -46t2.5 -41t1 -29.5q0 -23 1 -32.5t15 -7.5l150 -2h42q34 0 66 1.5t55 4.5q16 1 39.5 2t49 2t49.5 3.5t40 6.5q27 7 49.5 13.5t28.5 8.5q21 7 29.5 6.5t-0.5 -22.5q-3 -8 -13 -17.5t-25 -27.5q-3 -3 -9 -10.5
t-15 -16t-19 -16t-20 -10.5q-4 -1 -10.5 1t-18 4.5t-29 3.5t-43.5 -1q-34 -3 -69.5 -4.5t-66 -2.5t-52.5 -1h-28q-15 0 -43.5 -0.5t-61.5 -0.5h-67t-61 1q-18 1 -30.5 -0.5t-22.5 -1.5q-27 0 -29.5 14.5t15.5 40.5q4 6 6.5 8t3.5 4t1.5 6.5t0.5 14.5l2 176v53q0 37 -2 68.5
t-5 76.5q-1 36 -0.5 76t-7.5 67q-2 8 -10 14t-14.5 11.5t-10 11t3.5 12.5q3 3 5 7t6 8t10 7t18 3q63 0 138.5 1t145.5 2.5t123.5 2.5t71.5 1q8 3 19.5 4.5t22.5 2.5t20 1h14q17 -2 14.5 -12.5t-14.5 -24.5q-5 -5 -7 -8.5t-4 -6t-5.5 -6t-10.5 -8.5q-24 -17 -50 -23
q-5 -1 -20.5 0.5t-38 4t-49.5 5t-54 2.5l-211 -1q-12 0 -15.5 -15t-3 -33t3.5 -34t4 -18q42 -5 98.5 -2t117.5 2q46 1 88.5 1.5t78.5 0.5q37 0 65.5 -0.5t45.5 -1.5q25 -2 26 -11.5t-23 -37.5q-5 -6 -11.5 -13.5t-16.5 -15.5q-5 -5 -26 -3t-52.5 5.5t-71 7t-80.5 2.5
q-45 -1 -87.5 -2.5t-76.5 -3t-54.5 -2.5t-20.5 -2z" />
    <glyph glyph-name="f" unicode="f" horiz-adv-x="672" 
d="M172 431q-2 -65 -4.5 -141t3.5 -166q-2 -27 2.5 -57t15.5 -50q0 -8 -4 -14t-9 -13q-6 1 -19.5 -1t-30.5 -6t-36.5 -8.5t-37.5 -8.5q-19 -3 -22 14q0 7 10.5 19t18.5 24q5 9 8 14t5 10t2.5 12t-0.5 19q0 75 0.5 126t0 85.5t-0.5 56.5q0 23 -0.5 39.5t-2 31.5t-2.5 36
q0 58 -1 90.5t-7 53.5v-1q-3 9 -9.5 15t-14 12t-13 12t-5.5 15q0 7 5 12q35 7 72.5 7.5t72.5 -1.5t67 -4t57 1h49h33t21.5 0.5t16.5 0.5q43 3 85.5 6.5t64.5 8.5q-2 0 5.5 1.5t17.5 4t19.5 4.5t12.5 2h3q20 -2 20 -17q0 -7 -4.5 -14.5t-11.5 -15.5q-6 -6 -8.5 -9.5t-4 -6
t-4.5 -5.5t-11 -8q-12 -8 -24 -14.5t-27 -9.5h-7q-7 0 -17.5 0.5t-21.5 2.5q-23 3 -53.5 6t-61.5 3l-208 -1q-7 0 -9.5 -12t-2.5 -26q0 -17 1.5 -33t3.5 -21q45 -4 97 -2t110 2q46 0 93.5 1t86.5 1.5t66 0.5h33q9 5 18.5 2t8.5 -17q0 -8 -5.5 -19t-17.5 -25q-4 -3 -8.5 -9.5
t-10 -12.5t-12.5 -10.5t-16 -2.5q-47 2 -92.5 9t-98.5 7q-38 4 -78.5 5.5t-75 0.5t-60.5 -4.5t-36 -7.5z" />
    <glyph glyph-name="g" unicode="g" horiz-adv-x="794" 
d="M484 710q96 0 171.5 -17.5t110.5 -43.5q9 -8 9 -14q0 -11 -16 -20.5t-38 -14.5q-25 -5 -45 -5q-21 0 -34 8q-24 23 -57.5 35.5t-72 15.5t-78.5 -2t-76 -16q-30 -9 -69.5 -32t-76 -56.5t-63.5 -75.5t-31 -89q-3 -26 0 -53t10 -52.5t15.5 -47.5t17.5 -37q14 -29 40.5 -57.5
t55.5 -46.5q2 -2 16.5 -10.5t35.5 -17.5t46 -15.5t49 -5.5q15 1 34 -1t33 1q46 12 85.5 26t67.5 28t43 28.5t14 26.5q-3 32 -1.5 47.5t1.5 27.5q0 19 -1.5 40.5t-1.5 41.5q0 14 -5 19t-11.5 6.5t-12.5 1t-7 1.5q-3 1 -15 1h-21h-20q-8 0 -12 2q-17 8 -18.5 19.5t3.5 22
t13.5 18t13.5 7.5q17 -9 38.5 -10.5t44.5 0.5q52 5 75.5 4.5t33.5 -11.5t4 -48.5t-9 -100.5q2 -32 3.5 -54.5t0 -37.5t-7 -24.5t-16.5 -15.5l-14 -9t-34.5 -21t-44 -24t-42.5 -18q-38 -13 -75 -22.5t-67 -16t-50.5 -9.5t-24.5 -3q-49 -5 -86 -2.5t-65.5 11t-51.5 22.5
t-45 32q-35 29 -60.5 63t-41.5 69.5t-23.5 71.5t-7.5 68q0 31 8 66.5t23.5 70.5t38.5 69t52 63q63 60 146.5 91.5t195.5 31.5z" />
    <glyph glyph-name="h" unicode="h" horiz-adv-x="754" 
d="M187 538q-2 -18 -3 -29.5t-2 -22.5t-1.5 -27t-0.5 -43q1 -7 1 -12q0 -4 1.5 -7.5t5 -6t12.5 -3.5q19 -3 46 -3.5t54.5 0t52.5 1.5t40 0q23 1 43 1h41q60 0 98 5.5t38 24.5q-3 49 -1 95t-7 92q-2 10 -4.5 24t-6.5 25q-4 5 1 11.5t15 11.5q17 10 42.5 16.5t42.5 8.5
q22 0 22 -13q2 -48 -2.5 -94.5t-4.5 -94.5q-2 -41 -3.5 -77.5t-2.5 -72.5t0.5 -74.5t5.5 -84.5q2 -36 5 -64t5 -39q5 -20 5 -30q0 -17 -11 -28q-16 -16 -51 -23q-5 0 -11 -3.5t-13 -6.5q-7 -4 -14 -6.5t-15 -2.5h-2l-1 -4q-2 -7 -2 -4t2 4q-5 0 -12.5 4t-8.5 15q0 2 -0.5 3
t-0.5 3l2.5 15.5t4.5 30.5q4 23 7 43t5 41t3.5 44t3.5 52q1 19 1.5 45t0.5 48q0 14 -27 17.5t-70 3.5h-52q-17 0 -34 -0.5t-34 -0.5h-86q-58 0 -92.5 -4.5t-34.5 -20.5v-1v-29t-1 -29q0 -11 -0.5 -20.5t-0.5 -17.5q-1 -84 0 -126t5 -58q7 -19 -3.5 -27t-26.5 -17
q-11 -6 -28 -10t-28 -12q-11 -1 -19 -3.5t-14 -2.5t-10.5 3.5t-7.5 14.5q0 3 3.5 13.5t6.5 20.5t3.5 14.5t-4.5 -5.5q4 14 6 28t3.5 31.5t2.5 39.5t4 52q2 24 2 47t1 44q1 19 1.5 36t1.5 31q1 16 1 30v29q0 26 -0.5 50.5t-2.5 52.5q-1 38 -3 71t-12 63v1q0 10 0.5 15.5t5 9
t14 6t26.5 7.5l2 1q14 13 34 20.5t40 10.5q13 0 18 -6q-1 -7 -2 -12t-2 -11q-2 -11 -4 -23t-3.5 -28t-2.5 -37t-2 -50z" />
    <glyph glyph-name="i" unicode="i" horiz-adv-x="248" 
d="M87 551q-1 7 -1.5 19t-1.5 24q-2 22 -3 26q-6 8 -10 12t-6 8q-2 7 3 11t13 9q10 7 26.5 15t37.5 20q31 20 53 21.5t19 -6.5q-2 -6 -6 -23.5t-6 -43.5q-5 -66 -7.5 -124.5t-2.5 -122.5t2.5 -140t7.5 -176q1 -17 5 -25.5t2 -13.5t-13 -10t-39 -13q-12 -7 -29.5 -17
t-34.5 -15q-27 -7 -34 1.5t-2 15.5q18 25 21.5 46.5t5.5 31.5v470z" />
    <glyph glyph-name="j" unicode="j" horiz-adv-x="493" 
d="M339 664q19 11 42.5 23.5t38.5 15.5l14 3.5t8 -2.5q3 -8 4.5 -12.5t1 -8t-2.5 -8l-6 -13.5q-3 -15 -3 -18v-4v-8t-3 -32q1 -14 0.5 -35.5t-0.5 -46.5q0 -24 -0.5 -49t0.5 -46q3 -50 0.5 -125t-11.5 -175q-7 -94 -31 -137.5t-61 -53.5q-20 -6 -44 -6t-49 3.5t-49.5 9.5
t-45.5 13q-9 3 -25 8.5t-34 11.5t-34 10.5t-24 5.5q-17 2 -19 3t-6 11q-4 12 3.5 20t24.5 17q9 4 18.5 10t18 12t15 11t9.5 7q22 13 37 3t40 -38q19 -20 42.5 -31t46.5 -13q16 -1 29 16.5t22 41.5t13.5 47t4.5 33q3 73 3.5 130.5t-1.5 104.5q-2 45 -2.5 78t-1.5 58
t-4.5 41.5t-11.5 28.5q-3 6 -10 11.5t-13.5 10t-10.5 8.5t-1 9t10 12.5t21 18.5z" />
    <glyph glyph-name="k" unicode="k" horiz-adv-x="776" 
d="M698 713l1 1q0 1 1 2v-3h-2zM316 420q21 14 58 41.5t75 59.5q10 9 23 20t24.5 22t21 23t13.5 24q3 8 5 14.5t4 11.5q3 10 20 31q13 4 31 10.5t37.5 13t38 13t31.5 9.5q-10 -15 -50 -62t-112 -113q-20 -20 -51.5 -47t-65 -54t-64.5 -49t-49 -32q27 -26 64 -57t79 -63
t86.5 -63.5t87 -57t80 -44t66.5 -25.5q17 -6 20.5 -11.5t-0.5 -10.5q-6 -7 -21.5 -13t-28.5 -11q-11 -4 -21 -10t-19 -10.5t-17 -5.5t-15 6q-16 1 -47 18.5t-68 43t-76 54t-70 52.5q-27 22 -47 37.5t-37 28.5t-32 24t-32 24q0 1 -8 7t-19 12.5t-21.5 12t-16.5 5.5
q-4 0 -6.5 -0.5t-2.5 -5.5q-1 -5 -2 -7.5t-1.5 -13.5t-1 -36.5t-0.5 -76.5q0 -9 1.5 -26.5t3 -37l3 -39l2.5 -32.5q0 -7 -18 -13q-28 -7 -54 -14t-57 -14q-16 0 -16 16q0 9 4 20.5t7 19.5v2q4 73 5 140.5t8 145.5v84t-0.5 68t-1.5 63.5t-3 69.5q-4 12 -6 19t3 16q5 8 15 13
t20 11q20 12 42.5 21.5t42.5 11.5q16 0 20 -3.5t4 -9.5q0 -7 -2 -15t-4 -18q-4 -28 -6 -67t-3 -80.5t-2 -81.5t-3 -68q33 5 66.5 24t65.5 35z" />
    <glyph glyph-name="l" unicode="l" horiz-adv-x="737" 
d="M320 40l122 -2q39 1 58 2.5t33 4t30.5 5t51.5 5.5q22 6 36 10.5t24.5 7t19 4t19.5 1.5q3 0 2 -5t-3.5 -11.5t-5.5 -13t-4 -8.5q-10 -24 -32 -36q-11 -4 -22.5 -5.5t-28.5 1.5h-474q-14 0 -29.5 -2t-31.5 -5q-21 -5 -36 -8t-14 1q0 2 20 14q0 5 10 14.5t17 17.5q8 8 18 25
t10 30l9 225q2 48 0.5 93.5t-3.5 84.5q-2 25 -5.5 48.5t-10 44.5t-16.5 37.5t-25 26.5q-5 3 -4 6.5t5 7t10 6.5l12 6q17 6 42 12.5t45 14.5q18 7 32 13t24 8t15 -2.5t4 -18.5q0 -6 -2 -27t-5 -45t-5 -46t-2 -31q-8 -39 -10 -65.5t-2 -57.5v-44q0 -24 0.5 -57t0.5 -79
q0 -8 0.5 -26.5t1.5 -39.5t2.5 -40t2.5 -27q0 -9 -0.5 -19.5t1.5 -20.5t8 -17t19 -9z" />
    <glyph glyph-name="m" unicode="m" horiz-adv-x="1009" 
d="M189 534q4 21 6.5 43t7.5 42q3 11 5.5 20.5t11.5 16.5q11 8 29.5 17t50.5 14q13 1 24 -21q6 -12 11.5 -29t13.5 -37q25 -65 46 -119.5t40.5 -105t40 -99t44.5 -100.5q25 52 47.5 102t45.5 99q10 23 23 51t24.5 53.5t21 46t12.5 29.5q11 29 23.5 59.5t20.5 47.5
q17 19 31 23q14 5 25 1t17 -12q5 -7 9 -27.5t6 -33.5q8 -31 14 -60l12 -58q8 -39 17 -80t23 -92q17 -62 36 -126.5t36 -115.5q9 -25 27 -49q13 -17 18 -24.5t-3 -9.5q-6 -2 -18 -2.5t-34 -1.5h-23h-23q-10 0 -17.5 1t-7.5 3q-2 11 -1.5 23t-1.5 20q-2 7 -6.5 24.5t-10 38
l-11 41t-9.5 34.5q-19 66 -36.5 136t-34.5 127q-7 24 -11.5 30.5t-12.5 -21.5q-28 -61 -55 -121.5t-48 -109t-34.5 -78.5t-15.5 -30q-22 -54 -34 -84t-30 -28h-12t-16.5 1.5t-16 3.5t-9.5 7q-11 24 -25 59t-27.5 70.5t-26 67.5t-19 50.5t-7.5 19.5q-22 55 -36.5 91.5
t-23.5 58.5t-14.5 32t-9.5 13q-8 5 -13.5 -7.5t-21.5 -49.5q-2 -6 -7 -22.5t-10.5 -36.5t-10.5 -39.5t-6 -31.5q-8 -20 -15.5 -46.5t-14 -54.5t-11 -53.5t-6.5 -42.5q-4 -27 -2.5 -47.5t-7.5 -32.5q-7 -9 -32.5 -13.5t-60.5 -9.5q-12 -2 -23.5 2t-9.5 9q2 10 7.5 23.5
t11 26.5t10 22l4.5 9q19 60 35 119t30 107q21 78 34.5 133t20.5 94z" />
    <glyph glyph-name="n" unicode="n" horiz-adv-x="807" 
d="M757 516q0 -21 -0.5 -42.5t-1.5 -46t-1.5 -53.5t-0.5 -65q0 -14 1 -47t1.5 -68t1 -64.5t0.5 -35.5q-1 -17 0 -33.5t-7 -35.5q-3 -6 -10.5 -14t-18 -13.5t-22 -6t-22.5 8.5q-7 6 -11 9.5t-8 6.5t-8 6.5t-11 11.5q-63 58 -116 117.5t-115 117.5q-56 58 -97 100.5t-69.5 71
t-46 44t-26.5 19.5q-11 5 -15.5 -1t-5.5 -22q-1 -37 -2.5 -66t2.5 -62q1 -14 1.5 -39t0 -52.5t-1 -54t0.5 -43.5q0 -13 1 -34t2 -42.5t2.5 -39.5t3.5 -25t-5.5 -14t-13.5 -9q-11 -5 -25 -6.5t-30 -5.5q-10 -2 -20 -2.5t-18 -5.5q-5 -2 -5 6t2 22q2 13 5 30t6 33.5t4.5 31.5
t-0.5 24v5q0 5 1 19.5t1.5 43t1.5 76.5q1 67 0 129.5t-3 104.5q0 11 -1 30.5t-1.5 40t-1 37.5t0.5 23q1 9 18 19.5t31 17.5q14 6 26 11t24 9q8 2 10.5 -4.5t7.5 -6.5q7 -10 25.5 -34t44 -56t55 -68.5t58 -70.5t54 -62.5t42.5 -44.5q20 -24 44 -52t49 -49q35 -31 64 -58.5
t62 -45.5q2 7 4 32t4 53t3.5 53.5t1.5 34.5q0 38 -1.5 77l-2.5 65q-1 15 -1.5 26t-1 23t-2.5 26.5t-5 36.5q-2 18 -4.5 34t-4.5 32q2 3 5.5 12.5t8.5 12.5q18 9 41.5 19t41.5 15q7 2 8 -1t4 -5q-1 -17 -2.5 -41.5t-4 -49.5t-4 -46.5t-2.5 -33.5z" />
    <glyph glyph-name="o" unicode="o" horiz-adv-x="883" 
d="M470 339q0 18 -11.5 27t-25.5 9t-25.5 -9t-11.5 -27t11.5 -26.5t25.5 -8.5t25.5 8.5t11.5 26.5zM416 625q-64 0 -111.5 -16.5t-81 -43t-55 -59t-34 -64t-17 -58.5t-4.5 -42q0 -72 27 -122t66 -81.5t81 -48.5t72 -23q31 -6 60 -6q57 -2 99 6t77 30q42 10 76 45.5t57.5 79
t36.5 87t13 69.5q0 2 -0.5 5t-0.5 5q-6 37 -13.5 56t-19.5 28q-6 11 -31 36t-66 51t-98 46t-128 20h-5zM453 699q70 -4 126 -17.5t100 -34.5t76 -48t54 -57q20 -28 26.5 -55t9.5 -56l3 -18v-13q0 -47 -13.5 -98.5t-37.5 -101t-58 -92t-75 -71.5q-23 -15 -53.5 -26.5
t-64.5 -19t-68 -11.5t-63 -4q-99 0 -171 26t-118.5 70.5t-68.5 104.5t-22 128q0 87 27 150t68 107t91.5 71t96.5 41.5t83 19.5t52 5z" />
    <glyph glyph-name="p" unicode="p" horiz-adv-x="687" 
d="M243 20h-7t-13 2t-14 6t-9 12q-5 17 -8.5 48t-5 64.5t-1 63.5t2.5 44q1 5 16.5 3t35 -5.5t37 -6.5t23.5 0q66 -5 119 7t94 31.5t70 42t46 38.5q7 6 13 16t11 20t8 18.5t3 11.5q3 30 -3 61t-21 58.5t-39 50t-55 35.5q-13 10 -42.5 18t-68 13t-82 8.5t-83 5.5t-72.5 2
q-32 0 -48 -1q-15 2 -32.5 2.5t-33 -2t-25.5 -7.5t-9 -15q1 -8 10.5 -12t14.5 -15t6 -28.5t5 -43.5q1 -5 1.5 -27.5t2.5 -70.5q2 -44 0 -86t0 -99q1 -32 0.5 -66.5t-2 -68t-4 -62.5t-6.5 -48q-2 -7 -11.5 -12t-17.5 -8q-5 -2 -6 -4.5t-0.5 -5.5t1.5 -5t0 -3q15 0 38 0.5
t46 1.5t44 1.5t32 0.5q13 0 14.5 -0.5t1.5 -1.5t3 -1.5t17 -0.5zM179 500v25v35t0.5 32.5t2.5 19.5q3 10 8 16t10 7q34 4 81.5 1t95 -10.5t86 -18.5t54.5 -24q38 -31 53.5 -64.5t10.5 -66t-31 -61.5t-71 -52q-17 -9 -39 -16.5t-46 -13.5t-48.5 -8.5t-46.5 -0.5
q-16 1 -33.5 5.5t-33.5 9t-29.5 8.5t-20.5 6v35v25t-0.5 29.5t-1.5 51.5z" />
    <glyph glyph-name="q" unicode="q" horiz-adv-x="900" 
d="M467 696q70 -4 126 -17.5t100 -34.5t76 -48t54 -57q22 -32 28 -63.5t11 -65.5q2 -48 -10.5 -101.5t-37 -104.5t-59.5 -95.5t-78 -74.5q-8 -5 -13 -7.5t-10 -4t-11.5 -4.5t-18.5 -9q-3 -2 -9 -4.5t-3 -4.5q10 -5 20 -12.5t26.5 -16.5t43 -18.5t69.5 -18.5q14 -3 33 -4.5
t36.5 -2.5t29.5 -1.5t11 -0.5q-2 -1 8.5 0.5t27 3.5t36 4t34.5 2.5t23.5 -1.5t2.5 -9q-2 -2 -8.5 -5.5t-15 -7.5t-17 -7.5t-13.5 -4.5q-10 -3 -20 -5.5t-24 -4.5t-36 -5t-56 -6q-32 -3 -75.5 6t-91 23.5t-94.5 32.5t-86 33q-4 2 -10 -0.5t-10 -2.5h-10q-3 0 -5 0.5t-4.5 1
t-8.5 0.5q-99 0 -171 26t-118 70.5t-68 104t-22 127.5q0 87 27 150.5t68 107.5t91.5 71t96.5 41.5t83 19.5t52 5zM434 631q-67 1 -116.5 -16t-85 -44.5t-57.5 -61t-35 -66t-17.5 -60.5t-4.5 -44q0 -50 13 -89.5t34.5 -69.5t48.5 -51.5t55 -36.5t54.5 -24t47.5 -13
q16 -3 32.5 -8t30.5 -2q2 1 6 1q5 0 4 3q-2 9 4.5 13t18 5t26.5 -1.5t32 -5.5q5 -1 9 -0.5t9 1.5q28 3 46.5 13t25.5 12q30 7 56 28t47.5 49.5t37.5 61t26.5 63.5t15 57t2.5 41q-6 38 -14 58t-21 30q-6 11 -31.5 37t-67.5 52.5t-100.5 47t-131.5 20.5z" />
    <glyph glyph-name="r" unicode="r" horiz-adv-x="651" 
d="M182 358l8 -5q42 4 94.5 18t115.5 37q35 14 66 39t54 49q9 14 15 30.5t6 30.5q0 32 -22.5 50.5t-56 27.5t-71 11.5t-67.5 2.5q-24 -2 -42 -3t-33.5 -2.5t-31 -3.5t-33.5 -5l-2 -4v-273zM525 445q-20 -19 -33 -29.5t-24 -17t-23.5 -11t-31.5 -11.5q-16 -8 -24.5 -11.5
t-13.5 -7.5l-1 -7q6 -9 24 -31.5t40.5 -51t45.5 -57.5t41 -50q21 -23 36 -40t28 -30t24 -22t24 -17q7 -5 22 -5q49 -3 35 -16q-13 -11 -69 -30q-17 -4 -27.5 -12.5t-24.5 -13.5q-4 0 -7 3q-18 19 -46.5 52t-62 72.5t-68 81.5t-64.5 78q-14 17 -26.5 32.5t-23.5 28.5v1
q-2 2 -7 2h-4q-2 0 -5 -1q-8 -2 -24 -4.5t-46 -7.5l-4 -5q-2 -39 -2 -62q0 -22 0.5 -46t1 -57.5t0.5 -93.5q2 -12 3.5 -20t1.5 -13q0 -3 -2 -9v-1q-9 -5 -27.5 -12.5t-37.5 -14t-34.5 -11.5t-19.5 -5q-2 0 -2 1q-1 0 -1 1v0q0 3 2 6.5t4 8.5h1q5 11 11 27t6 37l-3 545
q0 8 -2.5 23t-10.5 27q-8 11 -13 16l-10 10q-9 7 -9 8q2 5 7.5 6.5t9.5 2.5q33 2 72 2.5t76 0.5h71t54 1q39 0 85 -2.5t87 -11t71 -24t38 -41.5q3 -14 3 -25q0 -12 -0.5 -19.5t-4 -15.5t-10 -19.5t-18.5 -31.5z" />
    <glyph glyph-name="s" unicode="s" horiz-adv-x="660" 
d="M484 427q29 -1 49 -3.5t23 -4.5q45 -13 63.5 -41t23 -60t-1 -64t-8.5 -54q-17 -51 -45 -86t-62 -58t-69.5 -36t-68.5 -19t-59 -7.5t-40 -1.5q-27 0 -71.5 7.5t-88.5 21.5q-27 8 -51.5 22t-42.5 30.5t-28.5 33.5t-9.5 32q9 10 19.5 25t19 24t14.5 8.5t7 -20.5
q0 -4 7.5 -14.5t11.5 -20.5q9 -22 28 -38.5t43 -28.5t52 -19.5t54 -12t48 -6t36 -1.5q63 0 103.5 23t65 52.5t34.5 56t11 33.5q3 20 3 43t-6.5 44t-21.5 37t-42 22q-14 3 -44.5 5.5t-63 4.5t-61 4t-37.5 4q-8 1 -23 2.5t-35.5 6.5t-45 15.5t-49.5 30.5q-6 4 -13.5 10
t-14.5 13.5t-13 18t-8 24.5q-5 32 5.5 58.5t33.5 48.5q22 21 52.5 37t67 27t77.5 16.5t83 5.5h24h28q15 0 28.5 -0.5t22.5 -1.5q16 -2 25 -3t15.5 -2t15 -2.5t23.5 -4.5q2 -12 0.5 -19.5t-7 -12.5t-15 -9.5t-24.5 -10.5q-6 4 -21 8t-33 7.5t-34 5.5t-23 2q-16 0 -38.5 -0.5
t-47.5 -3t-49.5 -7t-45.5 -12.5q-6 -3 -16.5 -8.5t-21 -12.5t-20 -15.5t-14.5 -15.5q-8 -12 -9 -28.5t9 -31.5q11 -16 35 -31.5t53 -23.5q25 -7 55 -10.5t60.5 -5t60 -2t53.5 -0.5z" />
    <glyph glyph-name="t" unicode="t" horiz-adv-x="704" 
d="M681 633q-5 0 -19.5 5.5t-35.5 6.5t-45 1h-47t-41.5 -0.5t-27.5 -0.5q-24 0 -41.5 1t-21.5 -1q-2 -4 -6.5 -14.5t-6.5 -29.5l-6 -81t-4 -132q0 -39 1.5 -83t3 -84.5t3 -73.5t2.5 -51t1.5 -28t1.5 -16.5t2.5 -12.5l4.5 -18q-9 -7 -12.5 -10.5t-8.5 -5.5t-14 -5t-28 -9
q-12 -3 -24 -7.5t-22 -7t-18 -2.5q-7 0 -10 5q-4 4 2 8.5t10 21.5q2 9 5.5 23t4.5 24q4 35 6.5 77t3.5 87t0 92t-2 91q-2 43 -4 82.5t-4 71.5t-4.5 54.5t-3.5 33.5q-14 0 -35 1t-45.5 1.5t-50.5 1t-49 0.5q-19 0 -41 -2.5t-41 -3.5t-31 -0.5t-10 6.5q5 12 15.5 24.5t22 21.5
t22 14.5t15.5 4.5q4 -1 16.5 -2.5t26.5 -2.5t26.5 -2t17.5 -1q12 0 24.5 -2t29.5 -1q33 1 74 0t84.5 -3t86.5 -2.5t80 2.5q9 1 17.5 2t16.5 1q16 0 41 1.5t50 4t44.5 4.5t24.5 4q16 0 25 -0.5t9.5 -5t-7.5 -15.5t-27 -33z" />
    <glyph glyph-name="u" unicode="u" horiz-adv-x="837" 
d="M745 100q1 -22 12 -39.5t14 -34.5q2 -8 -3.5 -13.5t-16 -10.5t-24.5 -10.5t-27 -11.5q-8 -4 -14.5 -7.5t-12.5 -4t-11 3.5t-10 16q4 14 -0.5 30.5t-1.5 25.5q2 6 1 8.5t-3 5t-4 5.5t-2 9q-38 -38 -74.5 -60.5t-73.5 -35t-74.5 -17.5t-76.5 -8h-24q-18 0 -44.5 3.5
t-58 11.5t-61.5 22q-21 10 -43.5 32.5t-40.5 52t-28.5 62.5t-7.5 65q0 37 2 63.5t5 48.5t7 42.5t9 45.5q8 29 16 51t14.5 39t12 31t8.5 28t4 26.5t-1 24.5q-2 14 1 26.5t23 14.5q15 2 20 4.5t20 6.5q6 1 16.5 3.5t21.5 4t20.5 2t13.5 -0.5q10 -4 12.5 -9t1 -9.5t-5.5 -9.5
t-8 -9q-6 -5 -5 -8.5t-10 -14.5q-31 -33 -52 -73.5t-34 -84t-19 -85.5t-8 -77.5t-0.5 -61t4.5 -34.5q6 -28 21.5 -52.5t36.5 -43.5t45 -32t45 -17q51 -10 90.5 -12t56.5 1q28 5 47 9t32.5 7t22 6.5t15.5 6.5q67 32 93 75t26 89q0 155 -0.5 240.5t0.5 103.5t-3.5 21.5
t-9.5 12.5q-8 13 -0.5 18.5t20.5 13.5q20 13 27.5 17.5t16.5 8.5q16 6 33 13.5t29 9.5q11 2 14.5 -2t2.5 -10.5t-4.5 -15.5t-6.5 -18q-5 -12 -9 -20.5t-8 -28t-7 -57.5t-5 -110v-319z" />
    <glyph glyph-name="v" unicode="v" horiz-adv-x="788" 
d="M269 162q-66 106 -124.5 219t-124.5 219q-11 11 -16.5 15.5t-6.5 11.5q-1 10 13 22t34 22q35 18 51 24t18 -8q0 -4 2 -13t4 -19l4 -20t4 -17q1 -9 7 -24.5t13.5 -32t15 -31.5t12.5 -23q0 1 11 -20.5t30.5 -58.5t46 -86t58.5 -104q7 -13 20 -34.5t27.5 -45.5t28 -45.5
t22.5 -34.5q4 7 8.5 5t7.5 4q19 34 34 68t28 69t24.5 71.5t23.5 76.5q30 97 45.5 152t15.5 76q0 16 1 24.5t-1 13.5q6 8 21 16.5t32.5 15.5t36 12.5t33 7t22 -1.5t4.5 -12q-6 -17 -19.5 -38t-20.5 -38q-30 -76 -60.5 -149t-59.5 -147q-20 -51 -40 -101.5t-39 -102.5
q-3 -6 -7.5 -16.5t-10 -22t-10 -22t-6.5 -16.5q-5 -14 -12 -22t-24 -13q-6 -2 -15 -3.5t-18.5 -3.5t-17.5 -3t-11 -1q-10 0 -15.5 7.5t-8.5 15.5q-8 18 -10 27t-9 19z" />
    <glyph glyph-name="w" unicode="w" horiz-adv-x="1147" 
d="M469 222q-3 -11 -5 -22.5t-7.5 -32.5t-17 -57t-33.5 -94q0 -9 -5.5 -20t-12.5 -18.5t-13 -9t-6 7.5q-1 1 -6.5 9t-14.5 21t-15 24q-4 6 -17.5 31.5t-32.5 62.5t-42 83t-46 94t-44.5 94t-37.5 84q-9 22 -20.5 44.5t-18.5 34.5t-8 14q-9 14 -13.5 21.5t-7 11.5t-4 6.5
t-3.5 6.5q-4 7 2 14t15.5 13.5t19.5 11t15 7.5q23 13 41.5 22.5t21.5 0.5q6 -16 9 -27.5t6.5 -26t9 -33.5t16.5 -50l13 -38t37 -97t57.5 -131t73.5 -140q1 -2 2 1.5t2.5 8t3 7.5t2.5 2q27 99 42 159.5t23.5 97t12.5 57.5t10 40q10 37 16.5 61t11 38.5t8.5 21.5t10 10
q6 2 21 5.5t26 6t13 2.5q20 2 31.5 -5t7.5 -20q-1 -4 0.5 -12t3.5 -17t4.5 -17.5t4.5 -12.5q16 -52 29.5 -101t29 -100t34 -107.5t44.5 -122.5q1 -3 3.5 -2t4.5 2.5t4.5 2t3.5 -2.5q18 35 30 58.5l24 47t25.5 52.5t33.5 76q22 45 42 85.5t34.5 75t23 61.5t7.5 45
q-1 13 13.5 22.5t32 15.5t33 9.5t17.5 4.5t7.5 2t9 -3t3 -13.5t-11.5 -29.5q-5 -10 -18.5 -38t-32.5 -67.5t-42.5 -88t-48 -99t-49 -100.5t-46 -93.5t-38.5 -77t-27 -51.5q-2 -3 -5.5 -10.5t-8.5 -17t-10.5 -19.5t-10.5 -18q-8 -13 -19 -13t-14 8q-26 58 -43.5 98.5
t-31 75.5t-25.5 70.5t-26 84.5q-14 47 -30 102.5t-36 100.5q-1 3 -1 2v-2v-2t-1 2l-4.5 -16.5t-11.5 -43.5t-15.5 -60t-16.5 -64.5t-15.5 -57.5t-11.5 -39z" />
    <glyph glyph-name="x" unicode="x" horiz-adv-x="811" 
d="M731 -13q19 5 33.5 10.5t14.5 12.5q0 6 -10 10q-5 4 -16 13t-18 15q-23 22 -54 55.5t-66 74t-71.5 85t-69.5 88.5q34 43 62.5 76.5t53.5 61t47.5 52t44.5 48.5q6 7 17 20t22.5 26.5t21.5 25t14 16.5q23 26 25.5 37t-14.5 9q-5 0 -14.5 -2t-20 -5.5t-21 -7.5t-19.5 -8
q-12 -5 -26.5 -9t-28 -8t-25.5 -8.5t-19 -10.5q-6 -4 -4.5 -6t4 -5t4 -8t-3.5 -15q-1 -3 -5 -9t-8.5 -13.5t-8.5 -14t-5 -10.5q-8 -29 -46 -77.5t-89 -111.5q-63 75 -102.5 133t-53.5 85q-5 8 -11.5 22t-8.5 28q-1 7 1.5 15.5t3.5 15t-1.5 9.5t-14.5 0q-8 -2 -21.5 -8
t-26.5 -12.5t-22.5 -12l-9.5 -5.5q-5 -5 -14 -9t-16.5 -9t-11 -10.5t3.5 -12.5q6 -5 10.5 -10t10.5 -11l14.5 -14.5t21.5 -20.5q24 -23 50 -53.5t51 -63t48 -63.5t41 -55q-25 -30 -43.5 -50.5t-42.5 -47.5t-60.5 -68.5t-96.5 -112.5q-9 -11 -21.5 -24.5t-25 -26t-22 -22.5
t-12.5 -14q-2 -3 -5.5 -9.5t-5.5 -12.5t0 -9t11 0q14 5 37 11.5t40 13.5q13 6 28.5 9t29 5.5t22.5 4.5t9 7q0 7 -3 14t3 21q4 8 11 17.5t14 18.5t13 16.5t9 11.5q8 12 13 17.5t10.5 11.5t14 17t23.5 34q9 12 20.5 26.5t24.5 29.5t25.5 29t23.5 26q42 -42 81.5 -88.5
t69.5 -84.5q20 -26 30.5 -44.5t12.5 -26.5q19 -23 28 -40t11 -22q5 -27 14.5 -31t20.5 8q11 13 24 19.5t21 20.5z" />
    <glyph glyph-name="y" unicode="y" horiz-adv-x="779" 
d="M670 535q-23 -40 -43.5 -72.5t-41.5 -66.5t-44 -72.5t-52 -90.5q-4 -5 -3 -12t1 -13q-3 -55 0 -102t1 -77q-1 -8 5.5 -13.5t8.5 -10.5q4 -11 6.5 -14.5t-11.5 -5.5q-20 -2 -42.5 1t-44.5 -3q-9 -2 -23.5 -4t-26.5 -1q-8 0 -15.5 2t-12 5t-4.5 7t7 8q2 11 7 13.5t7 13.5
q4 19 4 42q0 24 -0.5 48.5t-0.5 47.5q0 24 3 43q-2 5 -2.5 10.5t-3.5 11.5q-15 28 -40.5 64.5t-55 76.5t-60.5 80t-59 75q-38 48 -60.5 71.5t-24.5 26.5q-8 14 -14 24t2 16q13 9 21 14.5t14.5 10t14 8.5t19.5 8q11 4 26 12t21 11q12 6 15 2.5t3 -12.5q0 -8 -2 -17.5
t-1 -13.5q2 -7 8 -20.5t13 -27.5t13.5 -26.5t9.5 -17.5q7 -11 12 -18.5t10.5 -15t13 -17.5t20 -26.5t31.5 -41t47 -60.5q6 -7 21.5 -25t33 -38t32.5 -37t20 -22q8 14 16 25q45 69 81.5 128t59.5 103.5t31 72.5t-5 34q-3 2 -6.5 5.5t-4.5 8t1 9t10 7.5q29 11 62.5 23.5
t58.5 17.5q21 5 26.5 -0.5t-9.5 -24.5q-5 -14 -15.5 -30.5t-15.5 -29.5q-19 -23 -36.5 -54t-36.5 -54z" />
    <glyph glyph-name="z" unicode="z" horiz-adv-x="760" 
d="M766 11q1 -8 -3.5 -10.5t-12.5 -2t-18.5 2.5t-20.5 2q-19 1 -51 1t-71 -0.5t-82 -1.5t-85 -2q-78 -2 -149 0t-128 0q-18 -1 -35.5 2.5t-36.5 0.5q-20 -3 -30.5 -1t-12.5 7.5t2.5 12.5t13.5 14q44 50 80.5 98t65 89t49.5 72.5t35 49.5q63 78 113 144.5t83 112.5
q8 14 12.5 26t-12.5 12q-88 1 -167.5 -2t-144.5 -5q-8 0 -28.5 -4t-41.5 -10q-20 -5 -22.5 5.5t5.5 24.5q13 20 17.5 31.5t9.5 19.5q8 14 18 15t33 -1q33 -2 77.5 -1t102.5 3.5t130 3.5t160 -1q0 -2 7 -2q8 0 15 -2t9 -8.5t-9 -21.5q-71 -90 -135.5 -174.5t-131.5 -169.5
q-35 -45 -65.5 -90t-67.5 -95q-8 -12 -13.5 -27t-15.5 -30q-2 -8 2 -14.5t18 -6.5q17 0 66.5 -0.5t114 0t136 2.5t131.5 7q12 1 33 6t31 6q14 5 29 10.5t24 14.5q22 20 30.5 10t0.5 -38q-2 -10 -10.5 -20.5t-22.5 -25.5z" />
    <glyph glyph-name="braceleft" unicode="{" horiz-adv-x="244" 
d="M214 20q-6 5 -11.5 9t-11.5 9t-11.5 12.5t-11.5 19.5q-6 14 -13.5 40t-4.5 69l8 119q6 45 -3 75q-7 18 -14.5 30t-21.5 23q11 6 19.5 13.5t15.5 21.5q10 18 11 38.5t-5 56.5l-18 106q-3 13 -3 28q0 26 3 51.5t10 45.5q8 22 18 40.5t30 35.5q2 2 0 5t-5 5.5t-6.5 4.5
t-4.5 2q-26 -17 -46.5 -33.5t-45.5 -44.5q-13 -15 -22.5 -36t-15 -42t-7.5 -39.5t0 -29.5l17 -108q6 -35 2.5 -61.5t-17.5 -34.5q-5 -1 -7 -1.5t-1 -0.5q-3 0 -4 -0.5t-2 -0.5q-5 0 -5 1q-1 0 -2 0.5t-4 0.5h-5l1 -28q17 0 29 -9q8 -8 14.5 -26.5t2.5 -50.5l-14 -133
q-2 -4 -2 -12v-16q0 -12 0.5 -27t2 -29.5t4.5 -28t8 -22.5q7 -16 17.5 -31t21.5 -26t22.5 -18t21.5 -7q1 0 11.5 5t23 11t22.5 11.5t9 6.5z" />
    <glyph glyph-name="bar" unicode="|" horiz-adv-x="242" 
d="M160 0v872h-78v-872h78z" />
    <glyph glyph-name="braceright" unicode="}" horiz-adv-x="244" 
d="M210 425l-2 15q-8 -1 -10.5 0t-10.5 4q-3 1 -8 7.5t-9 17t-6.5 24.5t-0.5 30l15 133q1 4 1 11v17q0 26 -3.5 57t-11.5 50q-7 16 -17 31.5t-21 27.5t-22.5 19t-21.5 7q-2 0 -13 -5.5t-23.5 -12t-22 -12.5t-7.5 -7q11 -10 21 -17.5t24 -31.5q7 -12 13.5 -39t3.5 -71
l-7 -118q-1 -5 -1 -11v-10v-20q0 -24 4 -35q7 -18 14 -29.5t22 -23.5q-11 -6 -19.5 -12.5t-14.5 -20.5q-11 -18 -12 -38.5t6 -56.5l18 -107q1 -6 1.5 -13.5t0.5 -15.5q0 -24 -3 -51.5t-10 -45.5q-8 -22 -18 -40.5t-30 -32.5q-2 -2 0 -4.5t5 -5t6.5 -4.5t5.5 -2
q25 16 45.5 31t45.5 44q13 16 22.5 37t15 41.5t7 38.5t0.5 29l-16 108q-7 41 -3 70t24 37q8 2 10.5 4t12.5 2z" />
    <glyph glyph-name="asciitilde" unicode="~" horiz-adv-x="586" 
d="M545 341l-15 9q-7 -7 -16 -15t-17.5 -15t-16 -11.5t-12.5 -4.5q-7 0 -24 4.5t-39 11t-46 14t-45 12.5q-20 5 -43 10.5t-43.5 10.5t-35.5 8.5t-19 3.5q-6 0 -19.5 -7t-31.5 -18t-38 -25.5t-38 -30.5l25 -23q9 8 14.5 15t9.5 12.5t8.5 8.5t11.5 3q4 0 20.5 -7.5l38.5 -17.5
t47 -20t48 -15q36 -9 62 -15t58 -6q13 0 31.5 7.5t39.5 21.5t43 34t42 45zM456 285q0 -3 -8.5 -7t-19.5 -8.5t-22 -7.5t-16 -3q-3 0 -15 1.5t-28.5 4.5t-34 8t-32.5 12q-47 21 -84.5 34t-51.5 16l5.5 5.5t13.5 9.5t18 5l21.5 -7t53 -17.5l66 -22t61.5 -19.5q29 -11 48 -11
q16 0 20.5 3.5z" />
    <glyph glyph-name="AE" unicode="&#xc6;" horiz-adv-x="976" 
d="M196 262q12 5 44.5 8.5t71.5 5t78 0t64 -7.5q0 -7 0.5 -34t0 -60t-3.5 -65.5t-9 -50.5q-20 -27 -28.5 -42t-5.5 -23q12 3 17 3h10t14.5 0.5t29.5 5.5q42 -2 99 -6.5t111 -8.5t96.5 -5.5t56.5 1.5q10 4 25 17t33 29t38.5 32t41.5 25q2 7 3.5 12l1.5 5q-18 -16 -54 -24
t-80 -10.5t-92 -2t-89.5 3t-71.5 5t-39 3.5q-2 19 -2 51t0.5 67.5t1.5 68.5t2 54q12 0 32.5 2t43.5 3t47 1q25 0 46 -3t35.5 -10.5t18.5 -20.5q4 1 4.5 0t0.5 -2t1 -1.5t5 2.5q5 13 16.5 30t23 33.5t20.5 31.5t9 24q-19 2 -47.5 1.5t-60 -2.5t-64 -4.5t-60 -4t-47 -1
t-26.5 4.5q0 49 -3 103.5t1 113.5q35 3 75 5t77 -0.5t67 -11.5t45 -27q6 -1 7 -3t0 -3l-1 -1q0 1 4 5q4 10 17 25t25 32t17.5 33.5t-4.5 28.5q-27 0 -67.5 -1.5t-86.5 -2.5t-93 -2t-88 -1t-71 2t-41 6q-15 -31 -48 -82t-75 -111.5t-90 -125.5t-92.5 -124.5t-81.5 -108
t-58 -76t-22 -28.5q-7 -10 -6 -20.5t9.5 -19.5t23.5 -15t36 -6q8 0 27 4t41.5 10.5t45 14t36.5 13.5l7 6q1 0 -1.5 -1.5t-5.5 -1.5q-2 0 -2 6q-16 4 -34.5 9t-32 14.5t-18.5 25t7 42.5q6 13 17 30t24 35t26.5 36t23.5 32zM452 620l0.5 -17.5t1 -45t0.5 -60.5v-64
q0 -30 -0.5 -55t-1.5 -35q-11 -2 -38 -4t-58.5 -3t-60 -0.5t-41.5 4.5q6 9 28 40.5t50 70.5t56 78.5t45.5 64t18.5 26.5z" />
  </font>
</defs>
</svg>
